<svg width="34" height="34" viewBox="0 0 34 34" fill="none" xmlns="http://www.w3.org/2000/svg">
<g id="fluent:arrow-up-12-filled">
<path id="Vector" d="M16.9994 4.25045C16.4358 4.25045 15.8953 4.47433 15.4968 4.87284C15.0983 5.27136 14.8744 5.81186 14.8744 6.37545L14.8744 23.2054L9.29274 17.6238C8.88991 17.2484 8.35711 17.0441 7.80659 17.0538C7.25607 17.0635 6.73081 17.2865 6.34147 17.6758C5.95214 18.0652 5.72912 18.5904 5.71941 19.141C5.70969 19.6915 5.91404 20.2243 6.2894 20.6271L15.4977 29.8354C15.8962 30.2334 16.4363 30.4569 16.9994 30.4569C17.5625 30.4569 18.1026 30.2334 18.5011 29.8354L27.7094 20.6271C27.9182 20.4326 28.0856 20.198 28.2018 19.9373C28.3179 19.6766 28.3804 19.3953 28.3854 19.1099C28.3904 18.8246 28.338 18.5412 28.2311 18.2766C28.1242 18.012 27.9651 17.7716 27.7633 17.5698C27.5616 17.3681 27.3212 17.209 27.0566 17.1021C26.792 16.9952 26.5086 16.9427 26.2233 16.9478C25.9379 16.9528 25.6565 17.0153 25.3959 17.1314C25.1352 17.2475 24.9006 17.415 24.7061 17.6238L19.1244 23.2054L19.1244 6.37545C19.1244 5.20245 18.1724 4.25045 16.9994 4.25045Z" fill="#FF3232"/>
</g>
</svg>
