<svg width="14" height="15" viewBox="0 0 14 15" fill="none" xmlns="http://www.w3.org/2000/svg">
<path fill-rule="evenodd" clip-rule="evenodd" d="M0.949445 0.940145C1.2307 0.659244 1.61194 0.501465 2.00944 0.501465C2.40694 0.501465 2.78819 0.659244 3.06944 0.940145L7.00944 4.87815L10.9494 0.938145C11.2325 0.665038 11.6114 0.514023 12.0047 0.517625C12.398 0.521227 12.7742 0.679157 13.0522 0.957402C13.3301 1.23565 13.4877 1.61194 13.4909 2.00524C13.4942 2.39854 13.3428 2.77737 13.0694 3.06015L8.06944 8.06015C7.78819 8.34105 7.40694 8.49883 7.00944 8.49883C6.61194 8.49883 6.23069 8.34105 5.94944 8.06015L0.949445 3.06015C0.810055 2.92085 0.69948 2.75544 0.624038 2.57339C0.548596 2.39134 0.509766 2.19621 0.509766 1.99915C0.509766 1.80208 0.548596 1.60695 0.624038 1.4249C0.69948 1.24285 0.810055 1.07745 0.949445 0.938145V0.940145ZM0.949445 6.94014C1.2307 6.65924 1.61194 6.50146 2.00944 6.50146C2.40694 6.50146 2.78819 6.65924 3.06944 6.94014L7.00944 10.8781L10.9494 6.93814C11.2325 6.66504 11.6114 6.51402 12.0047 6.51762C12.398 6.52123 12.7742 6.67916 13.0522 6.9574C13.3301 7.23565 13.4877 7.61194 13.4909 8.00524C13.4942 8.39854 13.3428 8.77737 13.0694 9.06015L8.06944 14.0601C7.78819 14.341 7.40694 14.4988 7.00944 14.4988C6.61194 14.4988 6.23069 14.341 5.94944 14.0601L0.949445 9.06015C0.810055 8.92085 0.69948 8.75544 0.624038 8.57339C0.548596 8.39134 0.509766 8.19621 0.509766 7.99914C0.509766 7.80208 0.548596 7.60695 0.624038 7.4249C0.69948 7.24285 0.810055 7.07745 0.949445 6.93814V6.94014Z" fill="white"/>
</svg>
