<svg width="24" height="24" viewBox="0 0 24 24" fill="none" xmlns="http://www.w3.org/2000/svg">
<g id="Frame" clip-path="url(#clip0_2001_2187)">
<g id="Group">
<path id="Vector" d="M0.958759 7.04045C0.996199 6.88087 1.02788 6.71956 1.07108 6.56171C1.457 5.16236 2.70864 4.22273 4.17571 4.23944C4.35197 4.24174 4.42973 4.20487 4.48502 4.01937C5.31389 1.23966 8.5798 0.0909127 10.9811 1.72935C11.0791 1.79618 11.1459 1.8175 11.2622 1.74664C13.83 0.166958 17.0205 1.03342 18.449 3.69329C18.4726 3.7365 18.4991 3.77855 18.5308 3.83213C19.4322 3.56885 20.3083 3.61782 21.1487 4.04183C21.7817 4.361 22.2713 4.8357 22.6134 5.4579C23.3046 6.71438 23.1457 8.24163 22.2091 9.34257C21.3802 10.3162 19.8446 10.9534 18.1345 10.235C17.5988 11.4546 16.7002 12.2669 15.3881 12.5578C14.0835 12.847 12.9309 12.499 11.9143 11.6153C11.8555 11.655 11.7916 11.6971 11.7294 11.7415C9.49967 13.3338 6.43478 12.8487 4.80931 10.6411C4.72406 10.5253 4.64861 10.5011 4.50806 10.5195C2.84343 10.7379 1.27729 9.56955 1.00023 7.91268C0.992167 7.86544 0.972007 7.81992 0.957031 7.77384C0.958759 7.52957 0.958759 7.2853 0.958759 7.04045Z" fill="white"/>
<path id="Vector_2" d="M5.31447 23.0405C5.27415 23.0145 5.23498 22.9869 5.19351 22.9633C4.9274 22.8117 4.79434 22.53 4.86058 22.2581C4.93316 21.9608 5.16874 21.7742 5.47575 21.7454C5.7528 21.7189 6.03619 21.7016 6.30288 21.629C6.97392 21.4464 7.38921 20.963 7.69334 20.3673C7.76419 20.2285 7.82813 20.0862 7.89494 19.9468C10.6344 20.5194 13.3617 20.5154 16.0995 19.9502C16.198 20.145 16.2901 20.3454 16.3978 20.5373C16.8385 21.3248 17.5107 21.7292 18.415 21.7465C18.8159 21.754 19.0509 21.9274 19.1396 22.2587C19.203 22.4943 19.0647 22.8987 18.7082 23.0099C18.6978 23.0134 18.692 23.0312 18.6846 23.0422C14.2275 23.0405 9.77097 23.0405 5.31447 23.0405Z" fill="white"/>
<path id="Vector_3" d="M7.38917 14.9849C7.34367 15.4509 7.30335 15.894 7.25266 16.3358C7.2469 16.3871 7.19218 16.4413 7.14668 16.4776C7.05336 16.5513 6.95141 16.6141 6.79244 16.723C7.05164 16.8641 7.25323 16.9966 7.47154 17.0888C8.3269 17.4506 9.23409 17.5941 10.1494 17.6903C11.382 17.8199 12.6164 17.8187 13.849 17.6908C14.736 17.5987 15.6144 17.4575 16.4479 17.1234C16.6904 17.026 16.9156 16.8843 17.1938 16.7397C17.0907 16.6527 17.0412 16.5876 16.9761 16.5605C16.7866 16.4804 16.725 16.3405 16.7134 16.1434C16.691 15.7592 16.6478 15.3761 16.6109 14.9688C17.1316 15.1473 17.6022 15.3542 17.9899 15.7113C18.6378 16.3082 18.6298 17.1355 17.968 17.722C17.4772 18.1563 16.8788 18.3816 16.2607 18.555C14.5408 19.0383 12.7811 19.1317 11.0082 19.0516C9.80721 18.9969 8.62008 18.843 7.46981 18.4726C6.98309 18.3159 6.5148 18.1177 6.11103 17.7928C5.34783 17.1787 5.3317 16.2938 6.07071 15.6549C6.38636 15.3818 6.95256 15.0909 7.38917 14.9849Z" fill="white"/>
<path id="Vector_4" d="M8.63379 16.1348C8.67756 15.4089 8.71961 14.709 8.76281 13.9929C9.08537 13.9629 9.40448 13.9416 9.72185 13.9013C10.4263 13.8126 11.0887 13.5885 11.7229 13.271C11.7966 13.2342 11.9227 13.2295 11.9919 13.2681C12.982 13.8229 14.0372 14.039 15.1645 13.9111C15.1783 13.9093 15.1921 13.9145 15.2307 13.9191C15.2745 14.6421 15.3188 15.3703 15.3649 16.1331C13.1214 16.6165 10.8871 16.613 8.63379 16.1348Z" fill="white"/>
</g>
</g>
<defs>
<clipPath id="clip0_2001_2187">
<rect width="24" height="24" fill="white"/>
</clipPath>
</defs>
</svg>
