<svg width="24" height="25" viewBox="0 0 24 25" fill="none" xmlns="http://www.w3.org/2000/svg">
<g id="Frame 1321315384">
<path id="Vector" d="M0.0722237 9.5263C0.18359 9.05304 0.473345 8.74973 0.946135 8.69727C1.34056 8.65355 1.68961 8.81477 2.02216 9.01916C2.32583 9.2066 2.42225 9.49789 2.2784 9.77714C2.13662 10.0515 1.8448 10.1143 1.53648 9.9471C1.38696 9.86622 1.22764 9.80338 1.07297 9.73233C0.952322 10.0471 1.03275 10.6805 1.21011 10.8679C1.24517 10.9046 1.33901 10.9128 1.39057 10.892C1.80303 10.7275 2.2155 10.6095 2.64652 10.8281C2.67127 10.7603 2.68932 10.7231 2.69963 10.6838C2.91463 9.86568 3.28121 9.12955 3.77307 8.46337C4.91148 6.92171 6.42368 5.95824 8.13593 5.30791C8.38186 5.21391 8.58242 5.29971 8.74174 5.51503C9.04026 5.91616 9.34239 6.31456 9.64194 6.71459C9.88942 7.04522 9.89613 7.21354 9.67752 7.57532C9.42798 7.98901 9.17689 8.40216 8.91704 8.83116C9.58987 9.2383 10.2462 9.62139 10.886 10.0334C11.05 10.1384 11.2016 10.3127 11.2903 10.4931C11.5625 11.0494 11.8012 11.6248 12.0544 12.1921C12.0858 12.2626 12.1245 12.3293 12.1704 12.4178C12.654 11.8385 13.1185 11.2827 13.5831 10.7259C13.1 9.97825 12.6297 9.25415 12.1631 8.52731C11.9198 8.1475 12.0306 7.78408 12.4349 7.62997C12.8731 7.46274 13.3103 7.29278 13.7537 7.14249C13.9084 7.09003 13.9625 7.0015 13.9801 6.84302C14.0352 6.33587 14.094 5.82872 14.1631 5.32321C14.2306 4.82973 14.4461 4.64993 14.8962 4.76743C15.6459 4.96307 16.3945 5.17074 17.1282 5.42322C17.4143 5.52104 17.6123 5.52432 17.8804 5.35272C19.0756 4.58599 20.3908 4.40292 21.7612 4.54337C22.2928 4.59747 22.4665 4.87072 22.301 5.40956C21.9762 6.46757 21.6468 7.52395 21.3307 8.58469C21.3013 8.68361 21.3261 8.8257 21.3735 8.92133C21.5926 9.36454 21.8226 9.80283 22.0634 10.2335C22.1293 10.3515 22.2299 10.4756 22.3428 10.5297C22.7599 10.7286 23.1873 10.904 23.6142 11.0789C23.8746 11.186 24.0045 11.3745 23.9999 11.6718C23.9947 12.0068 24.003 12.3424 23.9911 12.6768C23.9617 13.5255 23.8767 14.3622 23.5462 15.153C23.4379 15.4131 23.2884 15.5968 23.0404 15.7148C22.7759 15.8405 22.4712 15.9471 22.2799 16.1597C21.3787 17.1597 20.298 17.8658 19.123 18.4276C18.9632 18.5041 18.9028 18.6063 18.876 18.7785C18.7827 19.3812 18.6842 19.9835 18.5739 20.583C18.4677 21.1595 18.0867 21.4891 17.5427 21.494C17.2664 21.4967 16.989 21.4814 16.7132 21.4973C16.1331 21.5306 15.7537 21.259 15.5299 20.6972C15.3742 20.3054 15.1891 19.9266 15.0226 19.5534C14.988 19.5463 14.971 19.5375 14.9576 19.5408C12.9979 20.042 11.0448 20.0195 9.10058 19.4479C8.96705 19.4086 8.91961 19.4709 8.86548 19.578C8.63965 20.0288 8.4097 20.4775 8.17718 20.9251C7.98074 21.3033 7.67191 21.4891 7.26666 21.494C6.98979 21.4967 6.71344 21.4995 6.43657 21.4929C5.92253 21.4814 5.51987 21.0978 5.45336 20.5562C5.33838 19.6179 5.22341 18.6795 5.11926 17.7401C5.09142 17.4865 5.00119 17.3046 4.81403 17.1302C3.39979 15.8126 2.5068 14.2174 2.50629 12.1582C2.50629 11.9036 2.27479 11.7183 2.03401 11.7806C1.89687 11.8156 1.76591 11.879 1.63083 11.9243C1.12453 12.0943 0.723404 11.973 0.423334 11.5123C0.0314922 10.9111 -0.0953407 10.2389 0.0722237 9.5263ZM18.2645 11.8637C18.4017 12.0358 18.5033 12.1861 18.626 12.3129C18.8595 12.5539 19.1591 12.5561 19.3617 12.3336C19.5566 12.12 19.5514 11.8085 19.3344 11.5702C19.2148 11.439 19.0745 11.3286 18.908 11.1762C19.0812 11.0122 19.2184 10.898 19.3375 10.7658C19.5509 10.5291 19.555 10.2116 19.3602 10.0023C19.1519 9.77878 18.8595 9.78316 18.6239 10.0269C18.5064 10.1488 18.4058 10.2892 18.2625 10.4635C18.1104 10.2887 18.0011 10.1482 17.8773 10.0242C17.6376 9.78316 17.3427 9.77933 17.1401 10.0034C16.9452 10.2187 16.9524 10.5253 17.1684 10.7679C17.286 10.9007 17.4174 11.0188 17.585 11.1855C17.4241 11.333 17.2839 11.4434 17.1643 11.5751C16.9493 11.8123 16.9467 12.1293 17.1442 12.3391C17.3422 12.5501 17.6407 12.5512 17.8645 12.3271C17.9903 12.2014 18.0996 12.0566 18.2645 11.8637Z" fill="white"/>
</g>
</svg>
