<svg width="20" height="21" viewBox="0 0 20 21" fill="none" xmlns="http://www.w3.org/2000/svg">
<g id="Frame">
<g id="Group">
<path id="Vector" d="M0.799292 6.36705C0.830491 6.23406 0.856891 6.09964 0.892891 5.96809C1.21449 4.80196 2.25753 4.01894 3.48009 4.03286C3.62697 4.03478 3.69177 4.00406 3.73785 3.84947C4.42856 1.53305 7.15016 0.575761 9.15127 1.94113C9.23287 1.99682 9.28855 2.01458 9.38551 1.95553C11.5253 0.639132 14.1841 1.36118 15.3745 3.57774C15.3941 3.61375 15.4162 3.6488 15.4426 3.69344C16.1938 3.47404 16.9239 3.51485 17.6242 3.86819C18.1517 4.13416 18.5597 4.52975 18.8449 5.04825C19.4209 6.09532 19.2884 7.36803 18.5079 8.28547C17.8172 9.09682 16.5375 9.62779 15.1124 9.02913C14.666 10.0455 13.9172 10.7224 12.8237 10.9648C11.7365 11.2058 10.7761 10.9159 9.92887 10.1794C9.87991 10.2125 9.82663 10.2476 9.77479 10.2846C7.91672 11.6115 5.36264 11.2073 4.00808 9.36759C3.93704 9.27109 3.87417 9.25093 3.75705 9.26629C2.36985 9.44824 1.06473 8.47463 0.833851 7.0939C0.827132 7.05453 0.810332 7.0166 0.797852 6.9782C0.799292 6.77464 0.799292 6.57108 0.799292 6.36705Z" fill="white"/>
<path id="Vector_2" d="M4.42937 19.7006C4.39577 19.679 4.36313 19.656 4.32857 19.6363C4.10681 19.51 3.99593 19.2753 4.05113 19.0487C4.11161 18.8009 4.30793 18.6454 4.56377 18.6214C4.79465 18.5993 5.03081 18.5849 5.25305 18.5244C5.81225 18.3722 6.15833 17.9694 6.41177 17.473C6.47081 17.3573 6.52409 17.2387 6.57977 17.1226C8.86264 17.5998 11.1354 17.5964 13.4169 17.1254C13.499 17.2877 13.5758 17.4548 13.6655 17.6146C14.0327 18.2709 14.5929 18.6079 15.3465 18.6223C15.6805 18.6286 15.8764 18.7731 15.9503 19.0491C16.0031 19.2455 15.8879 19.5825 15.5908 19.6752C15.5821 19.6781 15.5773 19.6929 15.5711 19.7021C11.8569 19.7006 8.14313 19.7006 4.42937 19.7006Z" fill="white"/>
<path id="Vector_3" d="M6.15797 12.9876C6.12005 13.376 6.08645 13.7451 6.04421 14.1134C6.03941 14.1561 5.99381 14.2012 5.95589 14.2315C5.87813 14.2929 5.79317 14.3452 5.66069 14.436C5.87669 14.5536 6.04469 14.664 6.22661 14.7408C6.93941 15.0423 7.6954 15.1619 8.45812 15.242C9.48532 15.3501 10.514 15.3491 11.5412 15.2425C12.2804 15.1657 13.0124 15.0481 13.7069 14.7696C13.909 14.6885 14.0967 14.5704 14.3285 14.4499C14.2426 14.3774 14.2013 14.3232 14.1471 14.3006C13.9892 14.2339 13.9378 14.1172 13.9282 13.953C13.9095 13.6328 13.8735 13.3135 13.8428 12.9741C14.2767 13.1229 14.6688 13.2953 14.9919 13.593C15.5319 14.0903 15.5251 14.7797 14.9736 15.2685C14.5647 15.6304 14.066 15.8182 13.5509 15.9627C12.1176 16.3655 10.6512 16.4432 9.1738 16.3765C8.173 16.3309 7.18373 16.2027 6.22517 15.894C5.81957 15.7634 5.42933 15.5983 5.09285 15.3275C4.45685 14.8157 4.44341 14.0783 5.05925 13.5459C5.32229 13.3183 5.79413 13.0759 6.15797 12.9876Z" fill="white"/>
<path id="Vector_4" d="M7.19531 13.9455C7.23179 13.3406 7.26683 12.7573 7.30283 12.1606C7.57163 12.1356 7.83755 12.1178 8.10203 12.0842C8.68907 12.0103 9.24107 11.8235 9.76955 11.559C9.83099 11.5283 9.93611 11.5245 9.99371 11.5566C10.8188 12.0189 11.6982 12.199 12.6375 12.0924C12.6491 12.091 12.6606 12.0953 12.6927 12.0991C12.7292 12.7016 12.7662 13.3085 12.8046 13.9441C10.935 14.3469 9.07307 14.344 7.19531 13.9455Z" fill="white"/>
</g>
</g>
</svg>
