<svg width="42" height="30" viewBox="0 0 42 30" fill="none" xmlns="http://www.w3.org/2000/svg">
<mask id="path-1-outside-1_58_9134" maskUnits="userSpaceOnUse" x="-8.5" y="-9" width="60" height="48" fill="black">
<rect fill="white" x="-8.5" y="-9" width="60" height="48"/>
<path d="M8.07031 22.375C9.96484 15.4023 12.7578 7.82422 15.9609 2.39453C17.7188 1.88672 21.7812 1.18359 24.2422 1.18359C24.3594 1.18359 24.4766 1.18359 24.5742 1.18359C21.918 5.67578 19.5547 9.95312 17.4844 13.9766C15.4336 18.0195 13.8906 22.3359 12.8945 26.9062L7.03516 28.1758L2.32812 29.4062C2.73828 25.5586 2.95312 22.2188 2.95312 19.3672C2.95312 17.2188 2.83594 15.3242 2.58203 13.7227C2.03516 10.0117 1.44922 6.57422 0.824219 3.39062C2.66016 2.31641 5.43359 1.51562 9.125 1.00781C9.39844 1.08594 9.55469 1.98438 9.55469 3.70312C9.55469 4.64062 9.51562 5.83203 9.41797 7.25781C9.18359 11.3008 8.73438 16.3398 8.07031 22.375ZM28.3047 1.80859C29.9844 1.16406 31.3711 0.792969 33.1289 0.792969C34.3984 0.792969 35.8438 0.988281 37.7383 1.45703C40.3555 2.08203 41.6445 2.84375 41.6445 3.72266C41.6445 3.82031 41.6445 3.91797 41.6055 4.01562C40.9805 6.33984 40.4727 8.25391 40.1016 9.77734C39.7305 11.2812 39.2812 12.5508 38.7734 13.5469C37.2109 12.5508 35.8828 11.6328 34.7891 10.832C33.8906 10.168 32.8945 9.83594 31.918 9.83594C30.8242 9.83594 29.7695 10.2656 28.9883 11.1641C28.7539 11.418 28.6562 11.6914 28.6562 11.9648C28.6562 12.4922 29.0469 13.0586 29.8281 13.6641C30.9805 14.5625 33.8516 16.4766 34.8867 17.6094C36.0781 19.0156 36.6641 20.6367 36.6641 22.4336C36.6641 22.7656 36.6445 23.0781 36.6055 23.4102C36.4297 25.4219 35.4922 26.9453 33.8125 27.9609C32.0742 29.0156 30.082 29.6016 28.0508 29.6016C26.4297 29.6016 24.7891 29.2305 23.2656 28.4297C21.6641 27.6094 20.6289 26.7891 20.1406 25.9688L22.582 21.8086C23.5 22.6094 24.457 23.293 25.4336 23.8203C26.1562 24.2109 27.1133 24.4844 27.9727 24.4844C29.125 24.4844 30.1016 24.0156 30.1016 22.8242C30.1016 22.6875 30.082 22.5703 30.0625 22.4141C29.5156 21.1445 26.7617 19.582 25.375 18.5078C23.5195 17.082 21.2734 14.9922 21.2734 11.7109C21.2734 11.0859 21.3516 10.4219 21.5273 9.71875C21.8203 8.39062 22.5234 6.96484 23.5781 5.40234C24.6523 3.85938 26.2148 2.64844 28.3047 1.80859Z"/>
</mask>
<path d="M8.07031 22.375C9.96484 15.4023 12.7578 7.82422 15.9609 2.39453C17.7188 1.88672 21.7812 1.18359 24.2422 1.18359C24.3594 1.18359 24.4766 1.18359 24.5742 1.18359C21.918 5.67578 19.5547 9.95312 17.4844 13.9766C15.4336 18.0195 13.8906 22.3359 12.8945 26.9062L7.03516 28.1758L2.32812 29.4062C2.73828 25.5586 2.95312 22.2188 2.95312 19.3672C2.95312 17.2188 2.83594 15.3242 2.58203 13.7227C2.03516 10.0117 1.44922 6.57422 0.824219 3.39062C2.66016 2.31641 5.43359 1.51562 9.125 1.00781C9.39844 1.08594 9.55469 1.98438 9.55469 3.70312C9.55469 4.64062 9.51562 5.83203 9.41797 7.25781C9.18359 11.3008 8.73438 16.3398 8.07031 22.375ZM28.3047 1.80859C29.9844 1.16406 31.3711 0.792969 33.1289 0.792969C34.3984 0.792969 35.8438 0.988281 37.7383 1.45703C40.3555 2.08203 41.6445 2.84375 41.6445 3.72266C41.6445 3.82031 41.6445 3.91797 41.6055 4.01562C40.9805 6.33984 40.4727 8.25391 40.1016 9.77734C39.7305 11.2812 39.2812 12.5508 38.7734 13.5469C37.2109 12.5508 35.8828 11.6328 34.7891 10.832C33.8906 10.168 32.8945 9.83594 31.918 9.83594C30.8242 9.83594 29.7695 10.2656 28.9883 11.1641C28.7539 11.418 28.6562 11.6914 28.6562 11.9648C28.6562 12.4922 29.0469 13.0586 29.8281 13.6641C30.9805 14.5625 33.8516 16.4766 34.8867 17.6094C36.0781 19.0156 36.6641 20.6367 36.6641 22.4336C36.6641 22.7656 36.6445 23.0781 36.6055 23.4102C36.4297 25.4219 35.4922 26.9453 33.8125 27.9609C32.0742 29.0156 30.082 29.6016 28.0508 29.6016C26.4297 29.6016 24.7891 29.2305 23.2656 28.4297C21.6641 27.6094 20.6289 26.7891 20.1406 25.9688L22.582 21.8086C23.5 22.6094 24.457 23.293 25.4336 23.8203C26.1562 24.2109 27.1133 24.4844 27.9727 24.4844C29.125 24.4844 30.1016 24.0156 30.1016 22.8242C30.1016 22.6875 30.082 22.5703 30.0625 22.4141C29.5156 21.1445 26.7617 19.582 25.375 18.5078C23.5195 17.082 21.2734 14.9922 21.2734 11.7109C21.2734 11.0859 21.3516 10.4219 21.5273 9.71875C21.8203 8.39062 22.5234 6.96484 23.5781 5.40234C24.6523 3.85938 26.2148 2.64844 28.3047 1.80859Z" fill="white"/>
<path d="M8.07031 22.375L-0.875695 21.3906C-1.38964 26.0615 1.77638 30.3417 6.39315 31.2173C11.0099 32.093 15.5233 29.2695 16.7554 24.7348L8.07031 22.375ZM15.9609 2.39453L13.4631 -6.2519C11.2561 -5.61433 9.37649 -4.15697 8.20927 -2.17839L15.9609 2.39453ZM24.5742 1.18359L32.3212 5.76443C33.9663 2.98229 33.9932 -0.468341 32.3917 -3.27581C30.7903 -6.08327 27.8063 -7.81641 24.5742 -7.81641V1.18359ZM17.4844 13.9766L9.48169 9.85868C9.47372 9.87415 9.4658 9.88965 9.45793 9.90518L17.4844 13.9766ZM12.8945 26.9062L14.8003 35.7022C18.2453 34.9557 20.9375 32.2669 21.6881 28.8228L12.8945 26.9062ZM7.03516 28.1758L5.12938 19.3799C5.00529 19.4068 4.88179 19.4363 4.75895 19.4684L7.03516 28.1758ZM2.32812 29.4062L-6.62117 28.4523C-6.93459 31.3924 -5.78388 34.2989 -3.54283 36.2277C-1.30179 38.1565 1.74369 38.8615 4.60433 38.1137L2.32812 29.4062ZM2.58203 13.7227L-6.3218 15.0348C-6.31703 15.0672 -6.31208 15.0996 -6.30695 15.1319L2.58203 13.7227ZM0.824219 3.39062L-3.72089 -4.37738C-7.02509 -2.44408 -8.74468 1.36787 -8.0072 5.1244L0.824219 3.39062ZM9.125 1.00781L11.5975 -7.6459C10.3961 -7.98917 9.13631 -8.0785 7.89846 -7.90822L9.125 1.00781ZM9.41797 7.25781L0.439006 6.64281C0.436857 6.67418 0.434873 6.70556 0.433054 6.73695L9.41797 7.25781ZM16.7554 24.7348C18.5423 18.1585 21.0788 11.4321 23.7126 6.96746L8.20927 -2.17839C4.43683 4.21635 1.38742 12.6462 -0.614804 20.0152L16.7554 24.7348ZM18.4588 11.041C18.8234 10.9356 19.8623 10.7024 21.217 10.4923C22.5824 10.2806 23.6888 10.1836 24.2422 10.1836V-7.81641C20.7834 -7.81641 15.8716 -6.9477 13.4631 -6.2519L18.4588 11.041ZM24.2422 10.1836C24.2424 10.1836 24.2426 10.1836 24.2429 10.1836C24.2431 10.1836 24.2433 10.1836 24.2436 10.1836C24.2438 10.1836 24.244 10.1836 24.2442 10.1836C24.2445 10.1836 24.2447 10.1836 24.2449 10.1836C24.2452 10.1836 24.2454 10.1836 24.2456 10.1836C24.2458 10.1836 24.2461 10.1836 24.2463 10.1836C24.2465 10.1836 24.2468 10.1836 24.247 10.1836C24.2472 10.1836 24.2475 10.1836 24.2477 10.1836C24.2479 10.1836 24.2481 10.1836 24.2484 10.1836C24.2486 10.1836 24.2488 10.1836 24.2491 10.1836C24.2493 10.1836 24.2495 10.1836 24.2497 10.1836C24.25 10.1836 24.2502 10.1836 24.2504 10.1836C24.2507 10.1836 24.2509 10.1836 24.2511 10.1836C24.2513 10.1836 24.2516 10.1836 24.2518 10.1836C24.252 10.1836 24.2523 10.1836 24.2525 10.1836C24.2527 10.1836 24.2529 10.1836 24.2532 10.1836C24.2534 10.1836 24.2536 10.1836 24.2539 10.1836C24.2541 10.1836 24.2543 10.1836 24.2545 10.1836C24.2548 10.1836 24.255 10.1836 24.2552 10.1836C24.2555 10.1836 24.2557 10.1836 24.2559 10.1836C24.2561 10.1836 24.2564 10.1836 24.2566 10.1836C24.2568 10.1836 24.2571 10.1836 24.2573 10.1836C24.2575 10.1836 24.2577 10.1836 24.258 10.1836C24.2582 10.1836 24.2584 10.1836 24.2587 10.1836C24.2589 10.1836 24.2591 10.1836 24.2594 10.1836C24.2596 10.1836 24.2598 10.1836 24.26 10.1836C24.2603 10.1836 24.2605 10.1836 24.2607 10.1836C24.261 10.1836 24.2612 10.1836 24.2614 10.1836C24.2616 10.1836 24.2619 10.1836 24.2621 10.1836C24.2623 10.1836 24.2626 10.1836 24.2628 10.1836C24.263 10.1836 24.2632 10.1836 24.2635 10.1836C24.2637 10.1836 24.2639 10.1836 24.2642 10.1836C24.2644 10.1836 24.2646 10.1836 24.2648 10.1836C24.2651 10.1836 24.2653 10.1836 24.2655 10.1836C24.2658 10.1836 24.266 10.1836 24.2662 10.1836C24.2664 10.1836 24.2667 10.1836 24.2669 10.1836C24.2671 10.1836 24.2674 10.1836 24.2676 10.1836C24.2678 10.1836 24.268 10.1836 24.2683 10.1836C24.2685 10.1836 24.2687 10.1836 24.269 10.1836C24.2692 10.1836 24.2694 10.1836 24.2696 10.1836C24.2699 10.1836 24.2701 10.1836 24.2703 10.1836C24.2706 10.1836 24.2708 10.1836 24.271 10.1836C24.2712 10.1836 24.2715 10.1836 24.2717 10.1836C24.2719 10.1836 24.2722 10.1836 24.2724 10.1836C24.2726 10.1836 24.2728 10.1836 24.2731 10.1836C24.2733 10.1836 24.2735 10.1836 24.2738 10.1836C24.274 10.1836 24.2742 10.1836 24.2744 10.1836C24.2747 10.1836 24.2749 10.1836 24.2751 10.1836C24.2754 10.1836 24.2756 10.1836 24.2758 10.1836C24.276 10.1836 24.2763 10.1836 24.2765 10.1836C24.2767 10.1836 24.277 10.1836 24.2772 10.1836C24.2774 10.1836 24.2776 10.1836 24.2779 10.1836C24.2781 10.1836 24.2783 10.1836 24.2786 10.1836C24.2788 10.1836 24.279 10.1836 24.2792 10.1836C24.2795 10.1836 24.2797 10.1836 24.2799 10.1836C24.2802 10.1836 24.2804 10.1836 24.2806 10.1836C24.2808 10.1836 24.2811 10.1836 24.2813 10.1836C24.2815 10.1836 24.2818 10.1836 24.282 10.1836C24.2822 10.1836 24.2824 10.1836 24.2827 10.1836C24.2829 10.1836 24.2831 10.1836 24.2834 10.1836C24.2836 10.1836 24.2838 10.1836 24.284 10.1836C24.2843 10.1836 24.2845 10.1836 24.2847 10.1836C24.285 10.1836 24.2852 10.1836 24.2854 10.1836C24.2856 10.1836 24.2859 10.1836 24.2861 10.1836C24.2863 10.1836 24.2866 10.1836 24.2868 10.1836C24.287 10.1836 24.2872 10.1836 24.2875 10.1836C24.2877 10.1836 24.2879 10.1836 24.2881 10.1836C24.2884 10.1836 24.2886 10.1836 24.2888 10.1836C24.2891 10.1836 24.2893 10.1836 24.2895 10.1836C24.2897 10.1836 24.29 10.1836 24.2902 10.1836C24.2904 10.1836 24.2907 10.1836 24.2909 10.1836C24.2911 10.1836 24.2913 10.1836 24.2916 10.1836C24.2918 10.1836 24.292 10.1836 24.2923 10.1836C24.2925 10.1836 24.2927 10.1836 24.2929 10.1836C24.2932 10.1836 24.2934 10.1836 24.2936 10.1836C24.2939 10.1836 24.2941 10.1836 24.2943 10.1836C24.2945 10.1836 24.2948 10.1836 24.295 10.1836C24.2952 10.1836 24.2954 10.1836 24.2957 10.1836C24.2959 10.1836 24.2961 10.1836 24.2964 10.1836C24.2966 10.1836 24.2968 10.1836 24.297 10.1836C24.2973 10.1836 24.2975 10.1836 24.2977 10.1836C24.298 10.1836 24.2982 10.1836 24.2984 10.1836C24.2986 10.1836 24.2989 10.1836 24.2991 10.1836C24.2993 10.1836 24.2996 10.1836 24.2998 10.1836C24.3 10.1836 24.3002 10.1836 24.3005 10.1836C24.3007 10.1836 24.3009 10.1836 24.3011 10.1836C24.3014 10.1836 24.3016 10.1836 24.3018 10.1836C24.3021 10.1836 24.3023 10.1836 24.3025 10.1836C24.3027 10.1836 24.303 10.1836 24.3032 10.1836C24.3034 10.1836 24.3037 10.1836 24.3039 10.1836C24.3041 10.1836 24.3043 10.1836 24.3046 10.1836C24.3048 10.1836 24.305 10.1836 24.3052 10.1836C24.3055 10.1836 24.3057 10.1836 24.3059 10.1836C24.3062 10.1836 24.3064 10.1836 24.3066 10.1836C24.3068 10.1836 24.3071 10.1836 24.3073 10.1836C24.3075 10.1836 24.3077 10.1836 24.308 10.1836C24.3082 10.1836 24.3084 10.1836 24.3087 10.1836C24.3089 10.1836 24.3091 10.1836 24.3093 10.1836C24.3096 10.1836 24.3098 10.1836 24.31 10.1836C24.3103 10.1836 24.3105 10.1836 24.3107 10.1836C24.3109 10.1836 24.3112 10.1836 24.3114 10.1836C24.3116 10.1836 24.3118 10.1836 24.3121 10.1836C24.3123 10.1836 24.3125 10.1836 24.3128 10.1836C24.313 10.1836 24.3132 10.1836 24.3134 10.1836C24.3137 10.1836 24.3139 10.1836 24.3141 10.1836C24.3143 10.1836 24.3146 10.1836 24.3148 10.1836C24.315 10.1836 24.3153 10.1836 24.3155 10.1836C24.3157 10.1836 24.3159 10.1836 24.3162 10.1836C24.3164 10.1836 24.3166 10.1836 24.3168 10.1836C24.3171 10.1836 24.3173 10.1836 24.3175 10.1836C24.3178 10.1836 24.318 10.1836 24.3182 10.1836C24.3184 10.1836 24.3187 10.1836 24.3189 10.1836C24.3191 10.1836 24.3193 10.1836 24.3196 10.1836C24.3198 10.1836 24.32 10.1836 24.3202 10.1836C24.3205 10.1836 24.3207 10.1836 24.3209 10.1836C24.3212 10.1836 24.3214 10.1836 24.3216 10.1836C24.3218 10.1836 24.3221 10.1836 24.3223 10.1836C24.3225 10.1836 24.3227 10.1836 24.323 10.1836C24.3232 10.1836 24.3234 10.1836 24.3237 10.1836C24.3239 10.1836 24.3241 10.1836 24.3243 10.1836C24.3246 10.1836 24.3248 10.1836 24.325 10.1836C24.3252 10.1836 24.3255 10.1836 24.3257 10.1836C24.3259 10.1836 24.3261 10.1836 24.3264 10.1836C24.3266 10.1836 24.3268 10.1836 24.3271 10.1836C24.3273 10.1836 24.3275 10.1836 24.3277 10.1836C24.328 10.1836 24.3282 10.1836 24.3284 10.1836C24.3286 10.1836 24.3289 10.1836 24.3291 10.1836C24.3293 10.1836 24.3295 10.1836 24.3298 10.1836C24.33 10.1836 24.3302 10.1836 24.3305 10.1836C24.3307 10.1836 24.3309 10.1836 24.3311 10.1836C24.3314 10.1836 24.3316 10.1836 24.3318 10.1836C24.332 10.1836 24.3323 10.1836 24.3325 10.1836C24.3327 10.1836 24.3329 10.1836 24.3332 10.1836C24.3334 10.1836 24.3336 10.1836 24.3338 10.1836C24.3341 10.1836 24.3343 10.1836 24.3345 10.1836C24.3348 10.1836 24.335 10.1836 24.3352 10.1836C24.3354 10.1836 24.3357 10.1836 24.3359 10.1836C24.3361 10.1836 24.3363 10.1836 24.3366 10.1836C24.3368 10.1836 24.337 10.1836 24.3372 10.1836C24.3375 10.1836 24.3377 10.1836 24.3379 10.1836C24.3381 10.1836 24.3384 10.1836 24.3386 10.1836C24.3388 10.1836 24.339 10.1836 24.3393 10.1836C24.3395 10.1836 24.3397 10.1836 24.34 10.1836C24.3402 10.1836 24.3404 10.1836 24.3406 10.1836C24.3409 10.1836 24.3411 10.1836 24.3413 10.1836C24.3415 10.1836 24.3418 10.1836 24.342 10.1836C24.3422 10.1836 24.3424 10.1836 24.3427 10.1836C24.3429 10.1836 24.3431 10.1836 24.3433 10.1836C24.3436 10.1836 24.3438 10.1836 24.344 10.1836C24.3442 10.1836 24.3445 10.1836 24.3447 10.1836C24.3449 10.1836 24.3451 10.1836 24.3454 10.1836C24.3456 10.1836 24.3458 10.1836 24.346 10.1836C24.3463 10.1836 24.3465 10.1836 24.3467 10.1836C24.3469 10.1836 24.3472 10.1836 24.3474 10.1836C24.3476 10.1836 24.3479 10.1836 24.3481 10.1836C24.3483 10.1836 24.3485 10.1836 24.3488 10.1836C24.349 10.1836 24.3492 10.1836 24.3494 10.1836C24.3497 10.1836 24.3499 10.1836 24.3501 10.1836C24.3503 10.1836 24.3506 10.1836 24.3508 10.1836C24.351 10.1836 24.3512 10.1836 24.3515 10.1836C24.3517 10.1836 24.3519 10.1836 24.3521 10.1836C24.3524 10.1836 24.3526 10.1836 24.3528 10.1836C24.353 10.1836 24.3533 10.1836 24.3535 10.1836C24.3537 10.1836 24.3539 10.1836 24.3542 10.1836C24.3544 10.1836 24.3546 10.1836 24.3548 10.1836C24.3551 10.1836 24.3553 10.1836 24.3555 10.1836C24.3557 10.1836 24.356 10.1836 24.3562 10.1836C24.3564 10.1836 24.3566 10.1836 24.3569 10.1836C24.3571 10.1836 24.3573 10.1836 24.3575 10.1836C24.3578 10.1836 24.358 10.1836 24.3582 10.1836C24.3584 10.1836 24.3587 10.1836 24.3589 10.1836C24.3591 10.1836 24.3593 10.1836 24.3596 10.1836C24.3598 10.1836 24.36 10.1836 24.3602 10.1836C24.3604 10.1836 24.3607 10.1836 24.3609 10.1836C24.3611 10.1836 24.3613 10.1836 24.3616 10.1836C24.3618 10.1836 24.362 10.1836 24.3622 10.1836C24.3625 10.1836 24.3627 10.1836 24.3629 10.1836C24.3631 10.1836 24.3634 10.1836 24.3636 10.1836C24.3638 10.1836 24.364 10.1836 24.3643 10.1836C24.3645 10.1836 24.3647 10.1836 24.3649 10.1836C24.3652 10.1836 24.3654 10.1836 24.3656 10.1836C24.3658 10.1836 24.3661 10.1836 24.3663 10.1836C24.3665 10.1836 24.3667 10.1836 24.367 10.1836C24.3672 10.1836 24.3674 10.1836 24.3676 10.1836C24.3678 10.1836 24.3681 10.1836 24.3683 10.1836C24.3685 10.1836 24.3687 10.1836 24.369 10.1836C24.3692 10.1836 24.3694 10.1836 24.3696 10.1836C24.3699 10.1836 24.3701 10.1836 24.3703 10.1836C24.3705 10.1836 24.3708 10.1836 24.371 10.1836C24.3712 10.1836 24.3714 10.1836 24.3717 10.1836C24.3719 10.1836 24.3721 10.1836 24.3723 10.1836C24.3725 10.1836 24.3728 10.1836 24.373 10.1836C24.3732 10.1836 24.3734 10.1836 24.3737 10.1836C24.3739 10.1836 24.3741 10.1836 24.3743 10.1836C24.3746 10.1836 24.3748 10.1836 24.375 10.1836C24.3752 10.1836 24.3755 10.1836 24.3757 10.1836C24.3759 10.1836 24.3761 10.1836 24.3763 10.1836C24.3766 10.1836 24.3768 10.1836 24.377 10.1836C24.3772 10.1836 24.3775 10.1836 24.3777 10.1836C24.3779 10.1836 24.3781 10.1836 24.3784 10.1836C24.3786 10.1836 24.3788 10.1836 24.379 10.1836C24.3792 10.1836 24.3795 10.1836 24.3797 10.1836C24.3799 10.1836 24.3801 10.1836 24.3804 10.1836C24.3806 10.1836 24.3808 10.1836 24.381 10.1836C24.3813 10.1836 24.3815 10.1836 24.3817 10.1836C24.3819 10.1836 24.3821 10.1836 24.3824 10.1836C24.3826 10.1836 24.3828 10.1836 24.383 10.1836C24.3833 10.1836 24.3835 10.1836 24.3837 10.1836C24.3839 10.1836 24.3841 10.1836 24.3844 10.1836C24.3846 10.1836 24.3848 10.1836 24.385 10.1836C24.3853 10.1836 24.3855 10.1836 24.3857 10.1836C24.3859 10.1836 24.3861 10.1836 24.3864 10.1836C24.3866 10.1836 24.3868 10.1836 24.387 10.1836C24.3873 10.1836 24.3875 10.1836 24.3877 10.1836C24.3879 10.1836 24.3881 10.1836 24.3884 10.1836C24.3886 10.1836 24.3888 10.1836 24.389 10.1836C24.3893 10.1836 24.3895 10.1836 24.3897 10.1836C24.3899 10.1836 24.3901 10.1836 24.3904 10.1836C24.3906 10.1836 24.3908 10.1836 24.391 10.1836C24.3913 10.1836 24.3915 10.1836 24.3917 10.1836C24.3919 10.1836 24.3921 10.1836 24.3924 10.1836C24.3926 10.1836 24.3928 10.1836 24.393 10.1836C24.3933 10.1836 24.3935 10.1836 24.3937 10.1836C24.3939 10.1836 24.3941 10.1836 24.3944 10.1836C24.3946 10.1836 24.3948 10.1836 24.395 10.1836C24.3952 10.1836 24.3955 10.1836 24.3957 10.1836C24.3959 10.1836 24.3961 10.1836 24.3964 10.1836C24.3966 10.1836 24.3968 10.1836 24.397 10.1836C24.3972 10.1836 24.3975 10.1836 24.3977 10.1836C24.3979 10.1836 24.3981 10.1836 24.3983 10.1836C24.3986 10.1836 24.3988 10.1836 24.399 10.1836C24.3992 10.1836 24.3995 10.1836 24.3997 10.1836C24.3999 10.1836 24.4001 10.1836 24.4003 10.1836C24.4006 10.1836 24.4008 10.1836 24.401 10.1836C24.4012 10.1836 24.4014 10.1836 24.4017 10.1836C24.4019 10.1836 24.4021 10.1836 24.4023 10.1836C24.4025 10.1836 24.4028 10.1836 24.403 10.1836C24.4032 10.1836 24.4034 10.1836 24.4036 10.1836C24.4039 10.1836 24.4041 10.1836 24.4043 10.1836C24.4045 10.1836 24.4048 10.1836 24.405 10.1836C24.4052 10.1836 24.4054 10.1836 24.4056 10.1836C24.4059 10.1836 24.4061 10.1836 24.4063 10.1836C24.4065 10.1836 24.4067 10.1836 24.407 10.1836C24.4072 10.1836 24.4074 10.1836 24.4076 10.1836C24.4078 10.1836 24.4081 10.1836 24.4083 10.1836C24.4085 10.1836 24.4087 10.1836 24.4089 10.1836C24.4092 10.1836 24.4094 10.1836 24.4096 10.1836C24.4098 10.1836 24.41 10.1836 24.4103 10.1836C24.4105 10.1836 24.4107 10.1836 24.4109 10.1836C24.4111 10.1836 24.4114 10.1836 24.4116 10.1836C24.4118 10.1836 24.412 10.1836 24.4122 10.1836C24.4125 10.1836 24.4127 10.1836 24.4129 10.1836C24.4131 10.1836 24.4133 10.1836 24.4136 10.1836C24.4138 10.1836 24.414 10.1836 24.4142 10.1836C24.4144 10.1836 24.4146 10.1836 24.4149 10.1836C24.4151 10.1836 24.4153 10.1836 24.4155 10.1836C24.4157 10.1836 24.416 10.1836 24.4162 10.1836C24.4164 10.1836 24.4166 10.1836 24.4168 10.1836C24.4171 10.1836 24.4173 10.1836 24.4175 10.1836C24.4177 10.1836 24.4179 10.1836 24.4182 10.1836C24.4184 10.1836 24.4186 10.1836 24.4188 10.1836C24.419 10.1836 24.4193 10.1836 24.4195 10.1836C24.4197 10.1836 24.4199 10.1836 24.4201 10.1836C24.4203 10.1836 24.4206 10.1836 24.4208 10.1836C24.421 10.1836 24.4212 10.1836 24.4214 10.1836C24.4217 10.1836 24.4219 10.1836 24.4221 10.1836C24.4223 10.1836 24.4225 10.1836 24.4228 10.1836C24.423 10.1836 24.4232 10.1836 24.4234 10.1836C24.4236 10.1836 24.4238 10.1836 24.4241 10.1836C24.4243 10.1836 24.4245 10.1836 24.4247 10.1836C24.4249 10.1836 24.4252 10.1836 24.4254 10.1836C24.4256 10.1836 24.4258 10.1836 24.426 10.1836C24.4262 10.1836 24.4265 10.1836 24.4267 10.1836C24.4269 10.1836 24.4271 10.1836 24.4273 10.1836C24.4276 10.1836 24.4278 10.1836 24.428 10.1836C24.4282 10.1836 24.4284 10.1836 24.4286 10.1836C24.4289 10.1836 24.4291 10.1836 24.4293 10.1836C24.4295 10.1836 24.4297 10.1836 24.4299 10.1836C24.4302 10.1836 24.4304 10.1836 24.4306 10.1836C24.4308 10.1836 24.431 10.1836 24.4313 10.1836C24.4315 10.1836 24.4317 10.1836 24.4319 10.1836C24.4321 10.1836 24.4323 10.1836 24.4326 10.1836C24.4328 10.1836 24.433 10.1836 24.4332 10.1836C24.4334 10.1836 24.4336 10.1836 24.4339 10.1836C24.4341 10.1836 24.4343 10.1836 24.4345 10.1836C24.4347 10.1836 24.4349 10.1836 24.4352 10.1836C24.4354 10.1836 24.4356 10.1836 24.4358 10.1836C24.436 10.1836 24.4362 10.1836 24.4365 10.1836C24.4367 10.1836 24.4369 10.1836 24.4371 10.1836C24.4373 10.1836 24.4375 10.1836 24.4378 10.1836C24.438 10.1836 24.4382 10.1836 24.4384 10.1836C24.4386 10.1836 24.4388 10.1836 24.4391 10.1836C24.4393 10.1836 24.4395 10.1836 24.4397 10.1836C24.4399 10.1836 24.4401 10.1836 24.4404 10.1836C24.4406 10.1836 24.4408 10.1836 24.441 10.1836C24.4412 10.1836 24.4414 10.1836 24.4417 10.1836C24.4419 10.1836 24.4421 10.1836 24.4423 10.1836C24.4425 10.1836 24.4427 10.1836 24.443 10.1836C24.4432 10.1836 24.4434 10.1836 24.4436 10.1836C24.4438 10.1836 24.444 10.1836 24.4443 10.1836C24.4445 10.1836 24.4447 10.1836 24.4449 10.1836C24.4451 10.1836 24.4453 10.1836 24.4455 10.1836C24.4458 10.1836 24.446 10.1836 24.4462 10.1836C24.4464 10.1836 24.4466 10.1836 24.4468 10.1836C24.4471 10.1836 24.4473 10.1836 24.4475 10.1836C24.4477 10.1836 24.4479 10.1836 24.4481 10.1836C24.4483 10.1836 24.4486 10.1836 24.4488 10.1836C24.449 10.1836 24.4492 10.1836 24.4494 10.1836C24.4496 10.1836 24.4499 10.1836 24.4501 10.1836C24.4503 10.1836 24.4505 10.1836 24.4507 10.1836C24.4509 10.1836 24.4511 10.1836 24.4514 10.1836C24.4516 10.1836 24.4518 10.1836 24.452 10.1836C24.4522 10.1836 24.4524 10.1836 24.4526 10.1836C24.4529 10.1836 24.4531 10.1836 24.4533 10.1836C24.4535 10.1836 24.4537 10.1836 24.4539 10.1836C24.4541 10.1836 24.4544 10.1836 24.4546 10.1836C24.4548 10.1836 24.455 10.1836 24.4552 10.1836C24.4554 10.1836 24.4556 10.1836 24.4559 10.1836C24.4561 10.1836 24.4563 10.1836 24.4565 10.1836C24.4567 10.1836 24.4569 10.1836 24.4571 10.1836C24.4574 10.1836 24.4576 10.1836 24.4578 10.1836C24.458 10.1836 24.4582 10.1836 24.4584 10.1836C24.4586 10.1836 24.4589 10.1836 24.4591 10.1836C24.4593 10.1836 24.4595 10.1836 24.4597 10.1836C24.4599 10.1836 24.4601 10.1836 24.4604 10.1836C24.4606 10.1836 24.4608 10.1836 24.461 10.1836C24.4612 10.1836 24.4614 10.1836 24.4616 10.1836C24.4618 10.1836 24.4621 10.1836 24.4623 10.1836C24.4625 10.1836 24.4627 10.1836 24.4629 10.1836C24.4631 10.1836 24.4633 10.1836 24.4636 10.1836C24.4638 10.1836 24.464 10.1836 24.4642 10.1836C24.4644 10.1836 24.4646 10.1836 24.4648 10.1836C24.465 10.1836 24.4653 10.1836 24.4655 10.1836C24.4657 10.1836 24.4659 10.1836 24.4661 10.1836C24.4663 10.1836 24.4665 10.1836 24.4667 10.1836C24.467 10.1836 24.4672 10.1836 24.4674 10.1836C24.4676 10.1836 24.4678 10.1836 24.468 10.1836C24.4682 10.1836 24.4684 10.1836 24.4687 10.1836C24.4689 10.1836 24.4691 10.1836 24.4693 10.1836C24.4695 10.1836 24.4697 10.1836 24.4699 10.1836C24.4701 10.1836 24.4704 10.1836 24.4706 10.1836C24.4708 10.1836 24.471 10.1836 24.4712 10.1836C24.4714 10.1836 24.4716 10.1836 24.4718 10.1836C24.472 10.1836 24.4723 10.1836 24.4725 10.1836C24.4727 10.1836 24.4729 10.1836 24.4731 10.1836C24.4733 10.1836 24.4735 10.1836 24.4737 10.1836C24.474 10.1836 24.4742 10.1836 24.4744 10.1836C24.4746 10.1836 24.4748 10.1836 24.475 10.1836C24.4752 10.1836 24.4754 10.1836 24.4756 10.1836C24.4759 10.1836 24.4761 10.1836 24.4763 10.1836C24.4765 10.1836 24.4767 10.1836 24.4769 10.1836C24.4771 10.1836 24.4773 10.1836 24.4775 10.1836C24.4778 10.1836 24.478 10.1836 24.4782 10.1836C24.4784 10.1836 24.4786 10.1836 24.4788 10.1836C24.479 10.1836 24.4792 10.1836 24.4794 10.1836C24.4796 10.1836 24.4799 10.1836 24.4801 10.1836C24.4803 10.1836 24.4805 10.1836 24.4807 10.1836C24.4809 10.1836 24.4811 10.1836 24.4813 10.1836C24.4815 10.1836 24.4818 10.1836 24.482 10.1836C24.4822 10.1836 24.4824 10.1836 24.4826 10.1836C24.4828 10.1836 24.483 10.1836 24.4832 10.1836C24.4834 10.1836 24.4836 10.1836 24.4839 10.1836C24.4841 10.1836 24.4843 10.1836 24.4845 10.1836C24.4847 10.1836 24.4849 10.1836 24.4851 10.1836C24.4853 10.1836 24.4855 10.1836 24.4857 10.1836C24.4859 10.1836 24.4862 10.1836 24.4864 10.1836C24.4866 10.1836 24.4868 10.1836 24.487 10.1836C24.4872 10.1836 24.4874 10.1836 24.4876 10.1836C24.4878 10.1836 24.488 10.1836 24.4882 10.1836C24.4885 10.1836 24.4887 10.1836 24.4889 10.1836C24.4891 10.1836 24.4893 10.1836 24.4895 10.1836C24.4897 10.1836 24.4899 10.1836 24.4901 10.1836C24.4903 10.1836 24.4905 10.1836 24.4908 10.1836C24.491 10.1836 24.4912 10.1836 24.4914 10.1836C24.4916 10.1836 24.4918 10.1836 24.492 10.1836C24.4922 10.1836 24.4924 10.1836 24.4926 10.1836C24.4928 10.1836 24.493 10.1836 24.4933 10.1836C24.4935 10.1836 24.4937 10.1836 24.4939 10.1836C24.4941 10.1836 24.4943 10.1836 24.4945 10.1836C24.4947 10.1836 24.4949 10.1836 24.4951 10.1836C24.4953 10.1836 24.4955 10.1836 24.4958 10.1836C24.496 10.1836 24.4962 10.1836 24.4964 10.1836C24.4966 10.1836 24.4968 10.1836 24.497 10.1836C24.4972 10.1836 24.4974 10.1836 24.4976 10.1836C24.4978 10.1836 24.498 10.1836 24.4982 10.1836C24.4984 10.1836 24.4987 10.1836 24.4989 10.1836C24.4991 10.1836 24.4993 10.1836 24.4995 10.1836C24.4997 10.1836 24.4999 10.1836 24.5001 10.1836C24.5003 10.1836 24.5005 10.1836 24.5007 10.1836C24.5009 10.1836 24.5011 10.1836 24.5013 10.1836C24.5016 10.1836 24.5018 10.1836 24.502 10.1836C24.5022 10.1836 24.5024 10.1836 24.5026 10.1836C24.5028 10.1836 24.503 10.1836 24.5032 10.1836C24.5034 10.1836 24.5036 10.1836 24.5038 10.1836C24.504 10.1836 24.5042 10.1836 24.5044 10.1836C24.5047 10.1836 24.5049 10.1836 24.5051 10.1836C24.5053 10.1836 24.5055 10.1836 24.5057 10.1836C24.5059 10.1836 24.5061 10.1836 24.5063 10.1836C24.5065 10.1836 24.5067 10.1836 24.5069 10.1836C24.5071 10.1836 24.5073 10.1836 24.5075 10.1836C24.5077 10.1836 24.5079 10.1836 24.5081 10.1836C24.5084 10.1836 24.5086 10.1836 24.5088 10.1836C24.509 10.1836 24.5092 10.1836 24.5094 10.1836C24.5096 10.1836 24.5098 10.1836 24.51 10.1836C24.5102 10.1836 24.5104 10.1836 24.5106 10.1836C24.5108 10.1836 24.511 10.1836 24.5112 10.1836C24.5114 10.1836 24.5116 10.1836 24.5118 10.1836C24.512 10.1836 24.5123 10.1836 24.5125 10.1836C24.5127 10.1836 24.5129 10.1836 24.5131 10.1836C24.5133 10.1836 24.5135 10.1836 24.5137 10.1836C24.5139 10.1836 24.5141 10.1836 24.5143 10.1836C24.5145 10.1836 24.5147 10.1836 24.5149 10.1836C24.5151 10.1836 24.5153 10.1836 24.5155 10.1836C24.5157 10.1836 24.5159 10.1836 24.5161 10.1836C24.5163 10.1836 24.5165 10.1836 24.5167 10.1836C24.5169 10.1836 24.5172 10.1836 24.5174 10.1836C24.5176 10.1836 24.5178 10.1836 24.518 10.1836C24.5182 10.1836 24.5184 10.1836 24.5186 10.1836C24.5188 10.1836 24.519 10.1836 24.5192 10.1836C24.5194 10.1836 24.5196 10.1836 24.5198 10.1836C24.52 10.1836 24.5202 10.1836 24.5204 10.1836C24.5206 10.1836 24.5208 10.1836 24.521 10.1836C24.5212 10.1836 24.5214 10.1836 24.5216 10.1836C24.5218 10.1836 24.522 10.1836 24.5222 10.1836C24.5224 10.1836 24.5226 10.1836 24.5228 10.1836C24.523 10.1836 24.5232 10.1836 24.5234 10.1836C24.5237 10.1836 24.5239 10.1836 24.5241 10.1836C24.5243 10.1836 24.5245 10.1836 24.5247 10.1836C24.5249 10.1836 24.5251 10.1836 24.5253 10.1836C24.5255 10.1836 24.5257 10.1836 24.5259 10.1836C24.5261 10.1836 24.5263 10.1836 24.5265 10.1836C24.5267 10.1836 24.5269 10.1836 24.5271 10.1836C24.5273 10.1836 24.5275 10.1836 24.5277 10.1836C24.5279 10.1836 24.5281 10.1836 24.5283 10.1836C24.5285 10.1836 24.5287 10.1836 24.5289 10.1836C24.5291 10.1836 24.5293 10.1836 24.5295 10.1836C24.5297 10.1836 24.5299 10.1836 24.5301 10.1836C24.5303 10.1836 24.5305 10.1836 24.5307 10.1836C24.5309 10.1836 24.5311 10.1836 24.5313 10.1836C24.5315 10.1836 24.5317 10.1836 24.5319 10.1836C24.5321 10.1836 24.5323 10.1836 24.5325 10.1836C24.5327 10.1836 24.5329 10.1836 24.5331 10.1836C24.5333 10.1836 24.5335 10.1836 24.5337 10.1836C24.5339 10.1836 24.5341 10.1836 24.5343 10.1836C24.5345 10.1836 24.5347 10.1836 24.5349 10.1836C24.5351 10.1836 24.5353 10.1836 24.5355 10.1836C24.5357 10.1836 24.5359 10.1836 24.5361 10.1836C24.5363 10.1836 24.5365 10.1836 24.5367 10.1836C24.5369 10.1836 24.5371 10.1836 24.5373 10.1836C24.5375 10.1836 24.5377 10.1836 24.5379 10.1836C24.5381 10.1836 24.5383 10.1836 24.5385 10.1836C24.5387 10.1836 24.5389 10.1836 24.5391 10.1836C24.5393 10.1836 24.5395 10.1836 24.5397 10.1836C24.5399 10.1836 24.5401 10.1836 24.5403 10.1836C24.5405 10.1836 24.5407 10.1836 24.5409 10.1836C24.5411 10.1836 24.5413 10.1836 24.5415 10.1836C24.5417 10.1836 24.5419 10.1836 24.5421 10.1836C24.5423 10.1836 24.5425 10.1836 24.5427 10.1836C24.5429 10.1836 24.5431 10.1836 24.5433 10.1836C24.5435 10.1836 24.5437 10.1836 24.5439 10.1836C24.5441 10.1836 24.5443 10.1836 24.5445 10.1836C24.5447 10.1836 24.5449 10.1836 24.5451 10.1836C24.5453 10.1836 24.5455 10.1836 24.5457 10.1836C24.5459 10.1836 24.5461 10.1836 24.5463 10.1836C24.5465 10.1836 24.5466 10.1836 24.5468 10.1836C24.547 10.1836 24.5472 10.1836 24.5474 10.1836C24.5476 10.1836 24.5478 10.1836 24.548 10.1836C24.5482 10.1836 24.5484 10.1836 24.5486 10.1836C24.5488 10.1836 24.549 10.1836 24.5492 10.1836C24.5494 10.1836 24.5496 10.1836 24.5498 10.1836C24.55 10.1836 24.5502 10.1836 24.5504 10.1836C24.5506 10.1836 24.5508 10.1836 24.551 10.1836C24.5512 10.1836 24.5514 10.1836 24.5516 10.1836C24.5518 10.1836 24.552 10.1836 24.5522 10.1836C24.5524 10.1836 24.5526 10.1836 24.5527 10.1836C24.5529 10.1836 24.5531 10.1836 24.5533 10.1836C24.5535 10.1836 24.5537 10.1836 24.5539 10.1836C24.5541 10.1836 24.5543 10.1836 24.5545 10.1836C24.5547 10.1836 24.5549 10.1836 24.5551 10.1836C24.5553 10.1836 24.5555 10.1836 24.5557 10.1836C24.5559 10.1836 24.5561 10.1836 24.5563 10.1836C24.5565 10.1836 24.5567 10.1836 24.5569 10.1836C24.5571 10.1836 24.5572 10.1836 24.5574 10.1836C24.5576 10.1836 24.5578 10.1836 24.558 10.1836C24.5582 10.1836 24.5584 10.1836 24.5586 10.1836C24.5588 10.1836 24.559 10.1836 24.5592 10.1836C24.5594 10.1836 24.5596 10.1836 24.5598 10.1836C24.56 10.1836 24.5602 10.1836 24.5604 10.1836C24.5606 10.1836 24.5607 10.1836 24.5609 10.1836C24.5611 10.1836 24.5613 10.1836 24.5615 10.1836C24.5617 10.1836 24.5619 10.1836 24.5621 10.1836C24.5623 10.1836 24.5625 10.1836 24.5627 10.1836C24.5629 10.1836 24.5631 10.1836 24.5633 10.1836C24.5635 10.1836 24.5637 10.1836 24.5638 10.1836C24.564 10.1836 24.5642 10.1836 24.5644 10.1836C24.5646 10.1836 24.5648 10.1836 24.565 10.1836C24.5652 10.1836 24.5654 10.1836 24.5656 10.1836C24.5658 10.1836 24.566 10.1836 24.5662 10.1836C24.5664 10.1836 24.5665 10.1836 24.5667 10.1836C24.5669 10.1836 24.5671 10.1836 24.5673 10.1836C24.5675 10.1836 24.5677 10.1836 24.5679 10.1836C24.5681 10.1836 24.5683 10.1836 24.5685 10.1836C24.5687 10.1836 24.5689 10.1836 24.5691 10.1836C24.5692 10.1836 24.5694 10.1836 24.5696 10.1836C24.5698 10.1836 24.57 10.1836 24.5702 10.1836C24.5704 10.1836 24.5706 10.1836 24.5708 10.1836C24.571 10.1836 24.5712 10.1836 24.5714 10.1836C24.5715 10.1836 24.5717 10.1836 24.5719 10.1836C24.5721 10.1836 24.5723 10.1836 24.5725 10.1836C24.5727 10.1836 24.5729 10.1836 24.5731 10.1836C24.5733 10.1836 24.5735 10.1836 24.5736 10.1836C24.5738 10.1836 24.574 10.1836 24.5742 10.1836V-7.81641C24.574 -7.81641 24.5738 -7.81641 24.5736 -7.81641C24.5735 -7.81641 24.5733 -7.81641 24.5731 -7.81641C24.5729 -7.81641 24.5727 -7.81641 24.5725 -7.81641C24.5723 -7.81641 24.5721 -7.81641 24.5719 -7.81641C24.5717 -7.81641 24.5715 -7.81641 24.5714 -7.81641C24.5712 -7.81641 24.571 -7.81641 24.5708 -7.81641C24.5706 -7.81641 24.5704 -7.81641 24.5702 -7.81641C24.57 -7.81641 24.5698 -7.81641 24.5696 -7.81641C24.5694 -7.81641 24.5692 -7.81641 24.5691 -7.81641C24.5689 -7.81641 24.5687 -7.81641 24.5685 -7.81641C24.5683 -7.81641 24.5681 -7.81641 24.5679 -7.81641C24.5677 -7.81641 24.5675 -7.81641 24.5673 -7.81641C24.5671 -7.81641 24.5669 -7.81641 24.5667 -7.81641C24.5665 -7.81641 24.5664 -7.81641 24.5662 -7.81641C24.566 -7.81641 24.5658 -7.81641 24.5656 -7.81641C24.5654 -7.81641 24.5652 -7.81641 24.565 -7.81641C24.5648 -7.81641 24.5646 -7.81641 24.5644 -7.81641C24.5642 -7.81641 24.564 -7.81641 24.5638 -7.81641C24.5637 -7.81641 24.5635 -7.81641 24.5633 -7.81641C24.5631 -7.81641 24.5629 -7.81641 24.5627 -7.81641C24.5625 -7.81641 24.5623 -7.81641 24.5621 -7.81641C24.5619 -7.81641 24.5617 -7.81641 24.5615 -7.81641C24.5613 -7.81641 24.5611 -7.81641 24.5609 -7.81641C24.5607 -7.81641 24.5606 -7.81641 24.5604 -7.81641C24.5602 -7.81641 24.56 -7.81641 24.5598 -7.81641C24.5596 -7.81641 24.5594 -7.81641 24.5592 -7.81641C24.559 -7.81641 24.5588 -7.81641 24.5586 -7.81641C24.5584 -7.81641 24.5582 -7.81641 24.558 -7.81641C24.5578 -7.81641 24.5576 -7.81641 24.5574 -7.81641C24.5572 -7.81641 24.5571 -7.81641 24.5569 -7.81641C24.5567 -7.81641 24.5565 -7.81641 24.5563 -7.81641C24.5561 -7.81641 24.5559 -7.81641 24.5557 -7.81641C24.5555 -7.81641 24.5553 -7.81641 24.5551 -7.81641C24.5549 -7.81641 24.5547 -7.81641 24.5545 -7.81641C24.5543 -7.81641 24.5541 -7.81641 24.5539 -7.81641C24.5537 -7.81641 24.5535 -7.81641 24.5533 -7.81641C24.5531 -7.81641 24.5529 -7.81641 24.5527 -7.81641C24.5526 -7.81641 24.5524 -7.81641 24.5522 -7.81641C24.552 -7.81641 24.5518 -7.81641 24.5516 -7.81641C24.5514 -7.81641 24.5512 -7.81641 24.551 -7.81641C24.5508 -7.81641 24.5506 -7.81641 24.5504 -7.81641C24.5502 -7.81641 24.55 -7.81641 24.5498 -7.81641C24.5496 -7.81641 24.5494 -7.81641 24.5492 -7.81641C24.549 -7.81641 24.5488 -7.81641 24.5486 -7.81641C24.5484 -7.81641 24.5482 -7.81641 24.548 -7.81641C24.5478 -7.81641 24.5476 -7.81641 24.5474 -7.81641C24.5472 -7.81641 24.547 -7.81641 24.5468 -7.81641C24.5466 -7.81641 24.5465 -7.81641 24.5463 -7.81641C24.5461 -7.81641 24.5459 -7.81641 24.5457 -7.81641C24.5455 -7.81641 24.5453 -7.81641 24.5451 -7.81641C24.5449 -7.81641 24.5447 -7.81641 24.5445 -7.81641C24.5443 -7.81641 24.5441 -7.81641 24.5439 -7.81641C24.5437 -7.81641 24.5435 -7.81641 24.5433 -7.81641C24.5431 -7.81641 24.5429 -7.81641 24.5427 -7.81641C24.5425 -7.81641 24.5423 -7.81641 24.5421 -7.81641C24.5419 -7.81641 24.5417 -7.81641 24.5415 -7.81641C24.5413 -7.81641 24.5411 -7.81641 24.5409 -7.81641C24.5407 -7.81641 24.5405 -7.81641 24.5403 -7.81641C24.5401 -7.81641 24.5399 -7.81641 24.5397 -7.81641C24.5395 -7.81641 24.5393 -7.81641 24.5391 -7.81641C24.5389 -7.81641 24.5387 -7.81641 24.5385 -7.81641C24.5383 -7.81641 24.5381 -7.81641 24.5379 -7.81641C24.5377 -7.81641 24.5375 -7.81641 24.5373 -7.81641C24.5371 -7.81641 24.5369 -7.81641 24.5367 -7.81641C24.5365 -7.81641 24.5363 -7.81641 24.5361 -7.81641C24.5359 -7.81641 24.5357 -7.81641 24.5355 -7.81641C24.5353 -7.81641 24.5351 -7.81641 24.5349 -7.81641C24.5347 -7.81641 24.5345 -7.81641 24.5343 -7.81641C24.5341 -7.81641 24.5339 -7.81641 24.5337 -7.81641C24.5335 -7.81641 24.5333 -7.81641 24.5331 -7.81641C24.5329 -7.81641 24.5327 -7.81641 24.5325 -7.81641C24.5323 -7.81641 24.5321 -7.81641 24.5319 -7.81641C24.5317 -7.81641 24.5315 -7.81641 24.5313 -7.81641C24.5311 -7.81641 24.5309 -7.81641 24.5307 -7.81641C24.5305 -7.81641 24.5303 -7.81641 24.5301 -7.81641C24.5299 -7.81641 24.5297 -7.81641 24.5295 -7.81641C24.5293 -7.81641 24.5291 -7.81641 24.5289 -7.81641C24.5287 -7.81641 24.5285 -7.81641 24.5283 -7.81641C24.5281 -7.81641 24.5279 -7.81641 24.5277 -7.81641C24.5275 -7.81641 24.5273 -7.81641 24.5271 -7.81641C24.5269 -7.81641 24.5267 -7.81641 24.5265 -7.81641C24.5263 -7.81641 24.5261 -7.81641 24.5259 -7.81641C24.5257 -7.81641 24.5255 -7.81641 24.5253 -7.81641C24.5251 -7.81641 24.5249 -7.81641 24.5247 -7.81641C24.5245 -7.81641 24.5243 -7.81641 24.5241 -7.81641C24.5239 -7.81641 24.5237 -7.81641 24.5234 -7.81641C24.5232 -7.81641 24.523 -7.81641 24.5228 -7.81641C24.5226 -7.81641 24.5224 -7.81641 24.5222 -7.81641C24.522 -7.81641 24.5218 -7.81641 24.5216 -7.81641C24.5214 -7.81641 24.5212 -7.81641 24.521 -7.81641C24.5208 -7.81641 24.5206 -7.81641 24.5204 -7.81641C24.5202 -7.81641 24.52 -7.81641 24.5198 -7.81641C24.5196 -7.81641 24.5194 -7.81641 24.5192 -7.81641C24.519 -7.81641 24.5188 -7.81641 24.5186 -7.81641C24.5184 -7.81641 24.5182 -7.81641 24.518 -7.81641C24.5178 -7.81641 24.5176 -7.81641 24.5174 -7.81641C24.5172 -7.81641 24.5169 -7.81641 24.5167 -7.81641C24.5165 -7.81641 24.5163 -7.81641 24.5161 -7.81641C24.5159 -7.81641 24.5157 -7.81641 24.5155 -7.81641C24.5153 -7.81641 24.5151 -7.81641 24.5149 -7.81641C24.5147 -7.81641 24.5145 -7.81641 24.5143 -7.81641C24.5141 -7.81641 24.5139 -7.81641 24.5137 -7.81641C24.5135 -7.81641 24.5133 -7.81641 24.5131 -7.81641C24.5129 -7.81641 24.5127 -7.81641 24.5125 -7.81641C24.5123 -7.81641 24.512 -7.81641 24.5118 -7.81641C24.5116 -7.81641 24.5114 -7.81641 24.5112 -7.81641C24.511 -7.81641 24.5108 -7.81641 24.5106 -7.81641C24.5104 -7.81641 24.5102 -7.81641 24.51 -7.81641C24.5098 -7.81641 24.5096 -7.81641 24.5094 -7.81641C24.5092 -7.81641 24.509 -7.81641 24.5088 -7.81641C24.5086 -7.81641 24.5084 -7.81641 24.5081 -7.81641C24.5079 -7.81641 24.5077 -7.81641 24.5075 -7.81641C24.5073 -7.81641 24.5071 -7.81641 24.5069 -7.81641C24.5067 -7.81641 24.5065 -7.81641 24.5063 -7.81641C24.5061 -7.81641 24.5059 -7.81641 24.5057 -7.81641C24.5055 -7.81641 24.5053 -7.81641 24.5051 -7.81641C24.5049 -7.81641 24.5047 -7.81641 24.5044 -7.81641C24.5042 -7.81641 24.504 -7.81641 24.5038 -7.81641C24.5036 -7.81641 24.5034 -7.81641 24.5032 -7.81641C24.503 -7.81641 24.5028 -7.81641 24.5026 -7.81641C24.5024 -7.81641 24.5022 -7.81641 24.502 -7.81641C24.5018 -7.81641 24.5016 -7.81641 24.5013 -7.81641C24.5011 -7.81641 24.5009 -7.81641 24.5007 -7.81641C24.5005 -7.81641 24.5003 -7.81641 24.5001 -7.81641C24.4999 -7.81641 24.4997 -7.81641 24.4995 -7.81641C24.4993 -7.81641 24.4991 -7.81641 24.4989 -7.81641C24.4987 -7.81641 24.4984 -7.81641 24.4982 -7.81641C24.498 -7.81641 24.4978 -7.81641 24.4976 -7.81641C24.4974 -7.81641 24.4972 -7.81641 24.497 -7.81641C24.4968 -7.81641 24.4966 -7.81641 24.4964 -7.81641C24.4962 -7.81641 24.496 -7.81641 24.4958 -7.81641C24.4955 -7.81641 24.4953 -7.81641 24.4951 -7.81641C24.4949 -7.81641 24.4947 -7.81641 24.4945 -7.81641C24.4943 -7.81641 24.4941 -7.81641 24.4939 -7.81641C24.4937 -7.81641 24.4935 -7.81641 24.4933 -7.81641C24.493 -7.81641 24.4928 -7.81641 24.4926 -7.81641C24.4924 -7.81641 24.4922 -7.81641 24.492 -7.81641C24.4918 -7.81641 24.4916 -7.81641 24.4914 -7.81641C24.4912 -7.81641 24.491 -7.81641 24.4908 -7.81641C24.4905 -7.81641 24.4903 -7.81641 24.4901 -7.81641C24.4899 -7.81641 24.4897 -7.81641 24.4895 -7.81641C24.4893 -7.81641 24.4891 -7.81641 24.4889 -7.81641C24.4887 -7.81641 24.4885 -7.81641 24.4882 -7.81641C24.488 -7.81641 24.4878 -7.81641 24.4876 -7.81641C24.4874 -7.81641 24.4872 -7.81641 24.487 -7.81641C24.4868 -7.81641 24.4866 -7.81641 24.4864 -7.81641C24.4862 -7.81641 24.4859 -7.81641 24.4857 -7.81641C24.4855 -7.81641 24.4853 -7.81641 24.4851 -7.81641C24.4849 -7.81641 24.4847 -7.81641 24.4845 -7.81641C24.4843 -7.81641 24.4841 -7.81641 24.4839 -7.81641C24.4836 -7.81641 24.4834 -7.81641 24.4832 -7.81641C24.483 -7.81641 24.4828 -7.81641 24.4826 -7.81641C24.4824 -7.81641 24.4822 -7.81641 24.482 -7.81641C24.4818 -7.81641 24.4815 -7.81641 24.4813 -7.81641C24.4811 -7.81641 24.4809 -7.81641 24.4807 -7.81641C24.4805 -7.81641 24.4803 -7.81641 24.4801 -7.81641C24.4799 -7.81641 24.4796 -7.81641 24.4794 -7.81641C24.4792 -7.81641 24.479 -7.81641 24.4788 -7.81641C24.4786 -7.81641 24.4784 -7.81641 24.4782 -7.81641C24.478 -7.81641 24.4778 -7.81641 24.4775 -7.81641C24.4773 -7.81641 24.4771 -7.81641 24.4769 -7.81641C24.4767 -7.81641 24.4765 -7.81641 24.4763 -7.81641C24.4761 -7.81641 24.4759 -7.81641 24.4756 -7.81641C24.4754 -7.81641 24.4752 -7.81641 24.475 -7.81641C24.4748 -7.81641 24.4746 -7.81641 24.4744 -7.81641C24.4742 -7.81641 24.474 -7.81641 24.4737 -7.81641C24.4735 -7.81641 24.4733 -7.81641 24.4731 -7.81641C24.4729 -7.81641 24.4727 -7.81641 24.4725 -7.81641C24.4723 -7.81641 24.472 -7.81641 24.4718 -7.81641C24.4716 -7.81641 24.4714 -7.81641 24.4712 -7.81641C24.471 -7.81641 24.4708 -7.81641 24.4706 -7.81641C24.4704 -7.81641 24.4701 -7.81641 24.4699 -7.81641C24.4697 -7.81641 24.4695 -7.81641 24.4693 -7.81641C24.4691 -7.81641 24.4689 -7.81641 24.4687 -7.81641C24.4684 -7.81641 24.4682 -7.81641 24.468 -7.81641C24.4678 -7.81641 24.4676 -7.81641 24.4674 -7.81641C24.4672 -7.81641 24.467 -7.81641 24.4667 -7.81641C24.4665 -7.81641 24.4663 -7.81641 24.4661 -7.81641C24.4659 -7.81641 24.4657 -7.81641 24.4655 -7.81641C24.4653 -7.81641 24.465 -7.81641 24.4648 -7.81641C24.4646 -7.81641 24.4644 -7.81641 24.4642 -7.81641C24.464 -7.81641 24.4638 -7.81641 24.4636 -7.81641C24.4633 -7.81641 24.4631 -7.81641 24.4629 -7.81641C24.4627 -7.81641 24.4625 -7.81641 24.4623 -7.81641C24.4621 -7.81641 24.4618 -7.81641 24.4616 -7.81641C24.4614 -7.81641 24.4612 -7.81641 24.461 -7.81641C24.4608 -7.81641 24.4606 -7.81641 24.4604 -7.81641C24.4601 -7.81641 24.4599 -7.81641 24.4597 -7.81641C24.4595 -7.81641 24.4593 -7.81641 24.4591 -7.81641C24.4589 -7.81641 24.4586 -7.81641 24.4584 -7.81641C24.4582 -7.81641 24.458 -7.81641 24.4578 -7.81641C24.4576 -7.81641 24.4574 -7.81641 24.4571 -7.81641C24.4569 -7.81641 24.4567 -7.81641 24.4565 -7.81641C24.4563 -7.81641 24.4561 -7.81641 24.4559 -7.81641C24.4556 -7.81641 24.4554 -7.81641 24.4552 -7.81641C24.455 -7.81641 24.4548 -7.81641 24.4546 -7.81641C24.4544 -7.81641 24.4541 -7.81641 24.4539 -7.81641C24.4537 -7.81641 24.4535 -7.81641 24.4533 -7.81641C24.4531 -7.81641 24.4529 -7.81641 24.4526 -7.81641C24.4524 -7.81641 24.4522 -7.81641 24.452 -7.81641C24.4518 -7.81641 24.4516 -7.81641 24.4514 -7.81641C24.4511 -7.81641 24.4509 -7.81641 24.4507 -7.81641C24.4505 -7.81641 24.4503 -7.81641 24.4501 -7.81641C24.4499 -7.81641 24.4496 -7.81641 24.4494 -7.81641C24.4492 -7.81641 24.449 -7.81641 24.4488 -7.81641C24.4486 -7.81641 24.4483 -7.81641 24.4481 -7.81641C24.4479 -7.81641 24.4477 -7.81641 24.4475 -7.81641C24.4473 -7.81641 24.4471 -7.81641 24.4468 -7.81641C24.4466 -7.81641 24.4464 -7.81641 24.4462 -7.81641C24.446 -7.81641 24.4458 -7.81641 24.4455 -7.81641C24.4453 -7.81641 24.4451 -7.81641 24.4449 -7.81641C24.4447 -7.81641 24.4445 -7.81641 24.4443 -7.81641C24.444 -7.81641 24.4438 -7.81641 24.4436 -7.81641C24.4434 -7.81641 24.4432 -7.81641 24.443 -7.81641C24.4427 -7.81641 24.4425 -7.81641 24.4423 -7.81641C24.4421 -7.81641 24.4419 -7.81641 24.4417 -7.81641C24.4414 -7.81641 24.4412 -7.81641 24.441 -7.81641C24.4408 -7.81641 24.4406 -7.81641 24.4404 -7.81641C24.4401 -7.81641 24.4399 -7.81641 24.4397 -7.81641C24.4395 -7.81641 24.4393 -7.81641 24.4391 -7.81641C24.4388 -7.81641 24.4386 -7.81641 24.4384 -7.81641C24.4382 -7.81641 24.438 -7.81641 24.4378 -7.81641C24.4375 -7.81641 24.4373 -7.81641 24.4371 -7.81641C24.4369 -7.81641 24.4367 -7.81641 24.4365 -7.81641C24.4362 -7.81641 24.436 -7.81641 24.4358 -7.81641C24.4356 -7.81641 24.4354 -7.81641 24.4352 -7.81641C24.4349 -7.81641 24.4347 -7.81641 24.4345 -7.81641C24.4343 -7.81641 24.4341 -7.81641 24.4339 -7.81641C24.4336 -7.81641 24.4334 -7.81641 24.4332 -7.81641C24.433 -7.81641 24.4328 -7.81641 24.4326 -7.81641C24.4323 -7.81641 24.4321 -7.81641 24.4319 -7.81641C24.4317 -7.81641 24.4315 -7.81641 24.4313 -7.81641C24.431 -7.81641 24.4308 -7.81641 24.4306 -7.81641C24.4304 -7.81641 24.4302 -7.81641 24.4299 -7.81641C24.4297 -7.81641 24.4295 -7.81641 24.4293 -7.81641C24.4291 -7.81641 24.4289 -7.81641 24.4286 -7.81641C24.4284 -7.81641 24.4282 -7.81641 24.428 -7.81641C24.4278 -7.81641 24.4276 -7.81641 24.4273 -7.81641C24.4271 -7.81641 24.4269 -7.81641 24.4267 -7.81641C24.4265 -7.81641 24.4262 -7.81641 24.426 -7.81641C24.4258 -7.81641 24.4256 -7.81641 24.4254 -7.81641C24.4252 -7.81641 24.4249 -7.81641 24.4247 -7.81641C24.4245 -7.81641 24.4243 -7.81641 24.4241 -7.81641C24.4238 -7.81641 24.4236 -7.81641 24.4234 -7.81641C24.4232 -7.81641 24.423 -7.81641 24.4228 -7.81641C24.4225 -7.81641 24.4223 -7.81641 24.4221 -7.81641C24.4219 -7.81641 24.4217 -7.81641 24.4214 -7.81641C24.4212 -7.81641 24.421 -7.81641 24.4208 -7.81641C24.4206 -7.81641 24.4203 -7.81641 24.4201 -7.81641C24.4199 -7.81641 24.4197 -7.81641 24.4195 -7.81641C24.4193 -7.81641 24.419 -7.81641 24.4188 -7.81641C24.4186 -7.81641 24.4184 -7.81641 24.4182 -7.81641C24.4179 -7.81641 24.4177 -7.81641 24.4175 -7.81641C24.4173 -7.81641 24.4171 -7.81641 24.4168 -7.81641C24.4166 -7.81641 24.4164 -7.81641 24.4162 -7.81641C24.416 -7.81641 24.4157 -7.81641 24.4155 -7.81641C24.4153 -7.81641 24.4151 -7.81641 24.4149 -7.81641C24.4146 -7.81641 24.4144 -7.81641 24.4142 -7.81641C24.414 -7.81641 24.4138 -7.81641 24.4136 -7.81641C24.4133 -7.81641 24.4131 -7.81641 24.4129 -7.81641C24.4127 -7.81641 24.4125 -7.81641 24.4122 -7.81641C24.412 -7.81641 24.4118 -7.81641 24.4116 -7.81641C24.4114 -7.81641 24.4111 -7.81641 24.4109 -7.81641C24.4107 -7.81641 24.4105 -7.81641 24.4103 -7.81641C24.41 -7.81641 24.4098 -7.81641 24.4096 -7.81641C24.4094 -7.81641 24.4092 -7.81641 24.4089 -7.81641C24.4087 -7.81641 24.4085 -7.81641 24.4083 -7.81641C24.4081 -7.81641 24.4078 -7.81641 24.4076 -7.81641C24.4074 -7.81641 24.4072 -7.81641 24.407 -7.81641C24.4067 -7.81641 24.4065 -7.81641 24.4063 -7.81641C24.4061 -7.81641 24.4059 -7.81641 24.4056 -7.81641C24.4054 -7.81641 24.4052 -7.81641 24.405 -7.81641C24.4048 -7.81641 24.4045 -7.81641 24.4043 -7.81641C24.4041 -7.81641 24.4039 -7.81641 24.4036 -7.81641C24.4034 -7.81641 24.4032 -7.81641 24.403 -7.81641C24.4028 -7.81641 24.4025 -7.81641 24.4023 -7.81641C24.4021 -7.81641 24.4019 -7.81641 24.4017 -7.81641C24.4014 -7.81641 24.4012 -7.81641 24.401 -7.81641C24.4008 -7.81641 24.4006 -7.81641 24.4003 -7.81641C24.4001 -7.81641 24.3999 -7.81641 24.3997 -7.81641C24.3995 -7.81641 24.3992 -7.81641 24.399 -7.81641C24.3988 -7.81641 24.3986 -7.81641 24.3983 -7.81641C24.3981 -7.81641 24.3979 -7.81641 24.3977 -7.81641C24.3975 -7.81641 24.3972 -7.81641 24.397 -7.81641C24.3968 -7.81641 24.3966 -7.81641 24.3964 -7.81641C24.3961 -7.81641 24.3959 -7.81641 24.3957 -7.81641C24.3955 -7.81641 24.3952 -7.81641 24.395 -7.81641C24.3948 -7.81641 24.3946 -7.81641 24.3944 -7.81641C24.3941 -7.81641 24.3939 -7.81641 24.3937 -7.81641C24.3935 -7.81641 24.3933 -7.81641 24.393 -7.81641C24.3928 -7.81641 24.3926 -7.81641 24.3924 -7.81641C24.3921 -7.81641 24.3919 -7.81641 24.3917 -7.81641C24.3915 -7.81641 24.3913 -7.81641 24.391 -7.81641C24.3908 -7.81641 24.3906 -7.81641 24.3904 -7.81641C24.3901 -7.81641 24.3899 -7.81641 24.3897 -7.81641C24.3895 -7.81641 24.3893 -7.81641 24.389 -7.81641C24.3888 -7.81641 24.3886 -7.81641 24.3884 -7.81641C24.3881 -7.81641 24.3879 -7.81641 24.3877 -7.81641C24.3875 -7.81641 24.3873 -7.81641 24.387 -7.81641C24.3868 -7.81641 24.3866 -7.81641 24.3864 -7.81641C24.3861 -7.81641 24.3859 -7.81641 24.3857 -7.81641C24.3855 -7.81641 24.3853 -7.81641 24.385 -7.81641C24.3848 -7.81641 24.3846 -7.81641 24.3844 -7.81641C24.3841 -7.81641 24.3839 -7.81641 24.3837 -7.81641C24.3835 -7.81641 24.3833 -7.81641 24.383 -7.81641C24.3828 -7.81641 24.3826 -7.81641 24.3824 -7.81641C24.3821 -7.81641 24.3819 -7.81641 24.3817 -7.81641C24.3815 -7.81641 24.3813 -7.81641 24.381 -7.81641C24.3808 -7.81641 24.3806 -7.81641 24.3804 -7.81641C24.3801 -7.81641 24.3799 -7.81641 24.3797 -7.81641C24.3795 -7.81641 24.3792 -7.81641 24.379 -7.81641C24.3788 -7.81641 24.3786 -7.81641 24.3784 -7.81641C24.3781 -7.81641 24.3779 -7.81641 24.3777 -7.81641C24.3775 -7.81641 24.3772 -7.81641 24.377 -7.81641C24.3768 -7.81641 24.3766 -7.81641 24.3763 -7.81641C24.3761 -7.81641 24.3759 -7.81641 24.3757 -7.81641C24.3755 -7.81641 24.3752 -7.81641 24.375 -7.81641C24.3748 -7.81641 24.3746 -7.81641 24.3743 -7.81641C24.3741 -7.81641 24.3739 -7.81641 24.3737 -7.81641C24.3734 -7.81641 24.3732 -7.81641 24.373 -7.81641C24.3728 -7.81641 24.3725 -7.81641 24.3723 -7.81641C24.3721 -7.81641 24.3719 -7.81641 24.3717 -7.81641C24.3714 -7.81641 24.3712 -7.81641 24.371 -7.81641C24.3708 -7.81641 24.3705 -7.81641 24.3703 -7.81641C24.3701 -7.81641 24.3699 -7.81641 24.3696 -7.81641C24.3694 -7.81641 24.3692 -7.81641 24.369 -7.81641C24.3687 -7.81641 24.3685 -7.81641 24.3683 -7.81641C24.3681 -7.81641 24.3678 -7.81641 24.3676 -7.81641C24.3674 -7.81641 24.3672 -7.81641 24.367 -7.81641C24.3667 -7.81641 24.3665 -7.81641 24.3663 -7.81641C24.3661 -7.81641 24.3658 -7.81641 24.3656 -7.81641C24.3654 -7.81641 24.3652 -7.81641 24.3649 -7.81641C24.3647 -7.81641 24.3645 -7.81641 24.3643 -7.81641C24.364 -7.81641 24.3638 -7.81641 24.3636 -7.81641C24.3634 -7.81641 24.3631 -7.81641 24.3629 -7.81641C24.3627 -7.81641 24.3625 -7.81641 24.3622 -7.81641C24.362 -7.81641 24.3618 -7.81641 24.3616 -7.81641C24.3613 -7.81641 24.3611 -7.81641 24.3609 -7.81641C24.3607 -7.81641 24.3604 -7.81641 24.3602 -7.81641C24.36 -7.81641 24.3598 -7.81641 24.3596 -7.81641C24.3593 -7.81641 24.3591 -7.81641 24.3589 -7.81641C24.3587 -7.81641 24.3584 -7.81641 24.3582 -7.81641C24.358 -7.81641 24.3578 -7.81641 24.3575 -7.81641C24.3573 -7.81641 24.3571 -7.81641 24.3569 -7.81641C24.3566 -7.81641 24.3564 -7.81641 24.3562 -7.81641C24.356 -7.81641 24.3557 -7.81641 24.3555 -7.81641C24.3553 -7.81641 24.3551 -7.81641 24.3548 -7.81641C24.3546 -7.81641 24.3544 -7.81641 24.3542 -7.81641C24.3539 -7.81641 24.3537 -7.81641 24.3535 -7.81641C24.3533 -7.81641 24.353 -7.81641 24.3528 -7.81641C24.3526 -7.81641 24.3524 -7.81641 24.3521 -7.81641C24.3519 -7.81641 24.3517 -7.81641 24.3515 -7.81641C24.3512 -7.81641 24.351 -7.81641 24.3508 -7.81641C24.3506 -7.81641 24.3503 -7.81641 24.3501 -7.81641C24.3499 -7.81641 24.3497 -7.81641 24.3494 -7.81641C24.3492 -7.81641 24.349 -7.81641 24.3488 -7.81641C24.3485 -7.81641 24.3483 -7.81641 24.3481 -7.81641C24.3479 -7.81641 24.3476 -7.81641 24.3474 -7.81641C24.3472 -7.81641 24.3469 -7.81641 24.3467 -7.81641C24.3465 -7.81641 24.3463 -7.81641 24.346 -7.81641C24.3458 -7.81641 24.3456 -7.81641 24.3454 -7.81641C24.3451 -7.81641 24.3449 -7.81641 24.3447 -7.81641C24.3445 -7.81641 24.3442 -7.81641 24.344 -7.81641C24.3438 -7.81641 24.3436 -7.81641 24.3433 -7.81641C24.3431 -7.81641 24.3429 -7.81641 24.3427 -7.81641C24.3424 -7.81641 24.3422 -7.81641 24.342 -7.81641C24.3418 -7.81641 24.3415 -7.81641 24.3413 -7.81641C24.3411 -7.81641 24.3409 -7.81641 24.3406 -7.81641C24.3404 -7.81641 24.3402 -7.81641 24.34 -7.81641C24.3397 -7.81641 24.3395 -7.81641 24.3393 -7.81641C24.339 -7.81641 24.3388 -7.81641 24.3386 -7.81641C24.3384 -7.81641 24.3381 -7.81641 24.3379 -7.81641C24.3377 -7.81641 24.3375 -7.81641 24.3372 -7.81641C24.337 -7.81641 24.3368 -7.81641 24.3366 -7.81641C24.3363 -7.81641 24.3361 -7.81641 24.3359 -7.81641C24.3357 -7.81641 24.3354 -7.81641 24.3352 -7.81641C24.335 -7.81641 24.3348 -7.81641 24.3345 -7.81641C24.3343 -7.81641 24.3341 -7.81641 24.3338 -7.81641C24.3336 -7.81641 24.3334 -7.81641 24.3332 -7.81641C24.3329 -7.81641 24.3327 -7.81641 24.3325 -7.81641C24.3323 -7.81641 24.332 -7.81641 24.3318 -7.81641C24.3316 -7.81641 24.3314 -7.81641 24.3311 -7.81641C24.3309 -7.81641 24.3307 -7.81641 24.3305 -7.81641C24.3302 -7.81641 24.33 -7.81641 24.3298 -7.81641C24.3295 -7.81641 24.3293 -7.81641 24.3291 -7.81641C24.3289 -7.81641 24.3286 -7.81641 24.3284 -7.81641C24.3282 -7.81641 24.328 -7.81641 24.3277 -7.81641C24.3275 -7.81641 24.3273 -7.81641 24.3271 -7.81641C24.3268 -7.81641 24.3266 -7.81641 24.3264 -7.81641C24.3261 -7.81641 24.3259 -7.81641 24.3257 -7.81641C24.3255 -7.81641 24.3252 -7.81641 24.325 -7.81641C24.3248 -7.81641 24.3246 -7.81641 24.3243 -7.81641C24.3241 -7.81641 24.3239 -7.81641 24.3237 -7.81641C24.3234 -7.81641 24.3232 -7.81641 24.323 -7.81641C24.3227 -7.81641 24.3225 -7.81641 24.3223 -7.81641C24.3221 -7.81641 24.3218 -7.81641 24.3216 -7.81641C24.3214 -7.81641 24.3212 -7.81641 24.3209 -7.81641C24.3207 -7.81641 24.3205 -7.81641 24.3202 -7.81641C24.32 -7.81641 24.3198 -7.81641 24.3196 -7.81641C24.3193 -7.81641 24.3191 -7.81641 24.3189 -7.81641C24.3187 -7.81641 24.3184 -7.81641 24.3182 -7.81641C24.318 -7.81641 24.3178 -7.81641 24.3175 -7.81641C24.3173 -7.81641 24.3171 -7.81641 24.3168 -7.81641C24.3166 -7.81641 24.3164 -7.81641 24.3162 -7.81641C24.3159 -7.81641 24.3157 -7.81641 24.3155 -7.81641C24.3153 -7.81641 24.315 -7.81641 24.3148 -7.81641C24.3146 -7.81641 24.3143 -7.81641 24.3141 -7.81641C24.3139 -7.81641 24.3137 -7.81641 24.3134 -7.81641C24.3132 -7.81641 24.313 -7.81641 24.3128 -7.81641C24.3125 -7.81641 24.3123 -7.81641 24.3121 -7.81641C24.3118 -7.81641 24.3116 -7.81641 24.3114 -7.81641C24.3112 -7.81641 24.3109 -7.81641 24.3107 -7.81641C24.3105 -7.81641 24.3103 -7.81641 24.31 -7.81641C24.3098 -7.81641 24.3096 -7.81641 24.3093 -7.81641C24.3091 -7.81641 24.3089 -7.81641 24.3087 -7.81641C24.3084 -7.81641 24.3082 -7.81641 24.308 -7.81641C24.3077 -7.81641 24.3075 -7.81641 24.3073 -7.81641C24.3071 -7.81641 24.3068 -7.81641 24.3066 -7.81641C24.3064 -7.81641 24.3062 -7.81641 24.3059 -7.81641C24.3057 -7.81641 24.3055 -7.81641 24.3052 -7.81641C24.305 -7.81641 24.3048 -7.81641 24.3046 -7.81641C24.3043 -7.81641 24.3041 -7.81641 24.3039 -7.81641C24.3037 -7.81641 24.3034 -7.81641 24.3032 -7.81641C24.303 -7.81641 24.3027 -7.81641 24.3025 -7.81641C24.3023 -7.81641 24.3021 -7.81641 24.3018 -7.81641C24.3016 -7.81641 24.3014 -7.81641 24.3011 -7.81641C24.3009 -7.81641 24.3007 -7.81641 24.3005 -7.81641C24.3002 -7.81641 24.3 -7.81641 24.2998 -7.81641C24.2996 -7.81641 24.2993 -7.81641 24.2991 -7.81641C24.2989 -7.81641 24.2986 -7.81641 24.2984 -7.81641C24.2982 -7.81641 24.298 -7.81641 24.2977 -7.81641C24.2975 -7.81641 24.2973 -7.81641 24.297 -7.81641C24.2968 -7.81641 24.2966 -7.81641 24.2964 -7.81641C24.2961 -7.81641 24.2959 -7.81641 24.2957 -7.81641C24.2954 -7.81641 24.2952 -7.81641 24.295 -7.81641C24.2948 -7.81641 24.2945 -7.81641 24.2943 -7.81641C24.2941 -7.81641 24.2939 -7.81641 24.2936 -7.81641C24.2934 -7.81641 24.2932 -7.81641 24.2929 -7.81641C24.2927 -7.81641 24.2925 -7.81641 24.2923 -7.81641C24.292 -7.81641 24.2918 -7.81641 24.2916 -7.81641C24.2913 -7.81641 24.2911 -7.81641 24.2909 -7.81641C24.2907 -7.81641 24.2904 -7.81641 24.2902 -7.81641C24.29 -7.81641 24.2897 -7.81641 24.2895 -7.81641C24.2893 -7.81641 24.2891 -7.81641 24.2888 -7.81641C24.2886 -7.81641 24.2884 -7.81641 24.2881 -7.81641C24.2879 -7.81641 24.2877 -7.81641 24.2875 -7.81641C24.2872 -7.81641 24.287 -7.81641 24.2868 -7.81641C24.2866 -7.81641 24.2863 -7.81641 24.2861 -7.81641C24.2859 -7.81641 24.2856 -7.81641 24.2854 -7.81641C24.2852 -7.81641 24.285 -7.81641 24.2847 -7.81641C24.2845 -7.81641 24.2843 -7.81641 24.284 -7.81641C24.2838 -7.81641 24.2836 -7.81641 24.2834 -7.81641C24.2831 -7.81641 24.2829 -7.81641 24.2827 -7.81641C24.2824 -7.81641 24.2822 -7.81641 24.282 -7.81641C24.2818 -7.81641 24.2815 -7.81641 24.2813 -7.81641C24.2811 -7.81641 24.2808 -7.81641 24.2806 -7.81641C24.2804 -7.81641 24.2802 -7.81641 24.2799 -7.81641C24.2797 -7.81641 24.2795 -7.81641 24.2792 -7.81641C24.279 -7.81641 24.2788 -7.81641 24.2786 -7.81641C24.2783 -7.81641 24.2781 -7.81641 24.2779 -7.81641C24.2776 -7.81641 24.2774 -7.81641 24.2772 -7.81641C24.277 -7.81641 24.2767 -7.81641 24.2765 -7.81641C24.2763 -7.81641 24.276 -7.81641 24.2758 -7.81641C24.2756 -7.81641 24.2754 -7.81641 24.2751 -7.81641C24.2749 -7.81641 24.2747 -7.81641 24.2744 -7.81641C24.2742 -7.81641 24.274 -7.81641 24.2738 -7.81641C24.2735 -7.81641 24.2733 -7.81641 24.2731 -7.81641C24.2728 -7.81641 24.2726 -7.81641 24.2724 -7.81641C24.2722 -7.81641 24.2719 -7.81641 24.2717 -7.81641C24.2715 -7.81641 24.2712 -7.81641 24.271 -7.81641C24.2708 -7.81641 24.2706 -7.81641 24.2703 -7.81641C24.2701 -7.81641 24.2699 -7.81641 24.2696 -7.81641C24.2694 -7.81641 24.2692 -7.81641 24.269 -7.81641C24.2687 -7.81641 24.2685 -7.81641 24.2683 -7.81641C24.268 -7.81641 24.2678 -7.81641 24.2676 -7.81641C24.2674 -7.81641 24.2671 -7.81641 24.2669 -7.81641C24.2667 -7.81641 24.2664 -7.81641 24.2662 -7.81641C24.266 -7.81641 24.2658 -7.81641 24.2655 -7.81641C24.2653 -7.81641 24.2651 -7.81641 24.2648 -7.81641C24.2646 -7.81641 24.2644 -7.81641 24.2642 -7.81641C24.2639 -7.81641 24.2637 -7.81641 24.2635 -7.81641C24.2632 -7.81641 24.263 -7.81641 24.2628 -7.81641C24.2626 -7.81641 24.2623 -7.81641 24.2621 -7.81641C24.2619 -7.81641 24.2616 -7.81641 24.2614 -7.81641C24.2612 -7.81641 24.261 -7.81641 24.2607 -7.81641C24.2605 -7.81641 24.2603 -7.81641 24.26 -7.81641C24.2598 -7.81641 24.2596 -7.81641 24.2594 -7.81641C24.2591 -7.81641 24.2589 -7.81641 24.2587 -7.81641C24.2584 -7.81641 24.2582 -7.81641 24.258 -7.81641C24.2577 -7.81641 24.2575 -7.81641 24.2573 -7.81641C24.2571 -7.81641 24.2568 -7.81641 24.2566 -7.81641C24.2564 -7.81641 24.2561 -7.81641 24.2559 -7.81641C24.2557 -7.81641 24.2555 -7.81641 24.2552 -7.81641C24.255 -7.81641 24.2548 -7.81641 24.2545 -7.81641C24.2543 -7.81641 24.2541 -7.81641 24.2539 -7.81641C24.2536 -7.81641 24.2534 -7.81641 24.2532 -7.81641C24.2529 -7.81641 24.2527 -7.81641 24.2525 -7.81641C24.2523 -7.81641 24.252 -7.81641 24.2518 -7.81641C24.2516 -7.81641 24.2513 -7.81641 24.2511 -7.81641C24.2509 -7.81641 24.2507 -7.81641 24.2504 -7.81641C24.2502 -7.81641 24.25 -7.81641 24.2497 -7.81641C24.2495 -7.81641 24.2493 -7.81641 24.2491 -7.81641C24.2488 -7.81641 24.2486 -7.81641 24.2484 -7.81641C24.2481 -7.81641 24.2479 -7.81641 24.2477 -7.81641C24.2475 -7.81641 24.2472 -7.81641 24.247 -7.81641C24.2468 -7.81641 24.2465 -7.81641 24.2463 -7.81641C24.2461 -7.81641 24.2458 -7.81641 24.2456 -7.81641C24.2454 -7.81641 24.2452 -7.81641 24.2449 -7.81641C24.2447 -7.81641 24.2445 -7.81641 24.2442 -7.81641C24.244 -7.81641 24.2438 -7.81641 24.2436 -7.81641C24.2433 -7.81641 24.2431 -7.81641 24.2429 -7.81641C24.2426 -7.81641 24.2424 -7.81641 24.2422 -7.81641V10.1836ZM16.8272 -3.39724C14.0882 1.23491 11.6387 5.6667 9.48169 9.85868L25.4871 18.0944C27.4707 14.2395 29.7477 10.1167 32.3212 5.76443L16.8272 -3.39724ZM9.45793 9.90518C7.05892 14.6346 5.25917 19.6756 4.10096 24.9897L21.6881 28.8228C22.5221 24.9963 23.8083 21.4044 25.5108 18.0479L9.45793 9.90518ZM10.9888 18.1103L5.12938 19.3799L8.94094 36.9717L14.8003 35.7022L10.9888 18.1103ZM4.75895 19.4684L0.0519159 20.6988L4.60433 38.1137L9.31137 36.8832L4.75895 19.4684ZM11.2774 30.3602C11.708 26.3207 11.9531 22.6423 11.9531 19.3672H-6.04688C-6.04688 21.7952 -6.23147 24.7965 -6.62117 28.4523L11.2774 30.3602ZM11.9531 19.3672C11.9531 16.9294 11.8228 14.5321 11.471 12.3134L-6.30695 15.1319C-6.15089 16.1163 -6.04688 17.5081 -6.04688 19.3672H11.9531ZM11.4859 12.4105C10.9209 8.57669 10.3114 4.99737 9.65564 1.65685L-8.0072 5.1244C-7.41301 8.15107 -6.85057 11.4467 -6.3218 15.0348L11.4859 12.4105ZM5.36933 11.1586C5.69936 10.9655 7.10142 10.3709 10.3515 9.92384L7.89846 -7.90822C3.76577 -7.3397 -0.379044 -6.33272 -3.72089 -4.37738L5.36933 11.1586ZM6.65251 9.66153C4.54248 9.05866 3.16343 7.83369 2.39801 6.94358C1.65133 6.07526 1.24966 5.25886 1.05452 4.81026C0.675433 3.93879 0.573287 3.272 0.559674 3.1885C0.516567 2.92412 0.554688 3.01207 0.554688 3.70312H18.5547C18.5547 2.67543 18.5147 1.45479 18.3251 0.291967C18.2382 -0.240748 18.0458 -1.25422 17.5605 -2.36983C17.2906 -2.99017 15.7792 -6.45113 11.5975 -7.6459L6.65251 9.66153ZM0.554688 3.70312C0.554688 4.40291 0.525057 5.38647 0.439006 6.64281L18.3969 7.87281C18.5062 6.27759 18.5547 4.87834 18.5547 3.70312H0.554688ZM0.433054 6.73695C0.210882 10.5694 -0.221136 15.4419 -0.875695 21.3906L17.0163 23.3594C17.6899 17.2378 18.1563 12.0321 18.4029 7.77868L0.433054 6.73695ZM28.3047 1.80859L25.0804 -6.59403C25.0364 -6.57713 24.9925 -6.55989 24.9487 -6.5423L28.3047 1.80859ZM37.7383 1.45703L35.5767 10.1936C35.6004 10.1994 35.6241 10.2052 35.6478 10.2109L37.7383 1.45703ZM41.6055 4.01562L33.2492 0.673109C33.1179 1.00136 33.006 1.33707 32.9142 1.67848L41.6055 4.01562ZM40.1016 9.77734L48.8395 11.9335C48.8416 11.9248 48.8438 11.9161 48.8459 11.9074L40.1016 9.77734ZM38.7734 13.5469L33.9354 21.1359C36.0748 22.4998 38.6905 22.8973 41.1384 22.2306C43.5864 21.5639 45.6393 19.8949 46.7916 17.6346L38.7734 13.5469ZM34.7891 10.832L29.4395 18.0696C29.4505 18.0777 29.4614 18.0858 29.4724 18.0938L34.7891 10.832ZM28.9883 11.1641L35.6015 17.2686C35.6619 17.2032 35.7213 17.1369 35.7797 17.0697L28.9883 11.1641ZM29.8281 13.6641L35.3619 6.56637C35.355 6.56102 35.3482 6.55567 35.3413 6.55033L29.8281 13.6641ZM34.8867 17.6094L41.7536 11.7916C41.6808 11.7058 41.6065 11.6213 41.5306 11.5382L34.8867 17.6094ZM36.6055 23.4102L27.6671 22.3586C27.6566 22.4478 27.6475 22.5372 27.6396 22.6267L36.6055 23.4102ZM33.8125 27.9609L29.1557 20.2593L29.144 20.2665L33.8125 27.9609ZM23.2656 28.4297L27.4531 20.4632C27.425 20.4484 27.3968 20.4338 27.3685 20.4193L23.2656 28.4297ZM20.1406 25.9688L12.3785 21.4135C10.7179 24.2433 10.7288 27.7527 12.407 30.5721L20.1406 25.9688ZM22.582 21.8086L28.4984 15.0265C26.4793 13.2651 23.7804 12.495 21.1358 12.9255C18.4913 13.3561 16.1761 14.9425 14.8199 17.2534L22.582 21.8086ZM25.4336 23.8203L29.7132 15.903L29.7099 15.9012L25.4336 23.8203ZM30.0625 22.4141L38.993 21.2978C38.8877 20.4557 38.6639 19.6328 38.3282 18.8534L30.0625 22.4141ZM25.375 18.5078L30.8866 11.3929C30.8773 11.3857 30.868 11.3785 30.8588 11.3714L25.375 18.5078ZM21.5273 9.71875L30.2586 11.9016C30.2789 11.8205 30.298 11.7391 30.3161 11.6574L21.5273 9.71875ZM23.5781 5.40234L16.1919 0.260024C16.1672 0.295535 16.1427 0.331224 16.1185 0.367088L23.5781 5.40234ZM31.5289 10.2112C32.1488 9.97336 32.464 9.88403 32.6486 9.84281C32.7919 9.81082 32.9206 9.79297 33.1289 9.79297V-8.20703C29.8676 -8.20703 27.3329 -7.45834 25.0804 -6.59403L31.5289 10.2112ZM33.1289 9.79297C33.4508 9.79297 34.1393 9.83794 35.5767 10.1936L39.8999 -7.27952C37.5482 -7.86138 35.3461 -8.20703 33.1289 -8.20703V9.79297ZM35.6478 10.2109C36.6476 10.4497 36.6223 10.5508 36.1416 10.2708C35.8793 10.1179 35.1089 9.6382 34.3396 8.66426C33.4846 7.58175 32.6445 5.88067 32.6445 3.72266H50.6445C50.6445 -1.68613 46.6455 -4.44159 45.2041 -5.2815C43.4246 -6.3184 41.4461 -6.91059 39.8288 -7.29682L35.6478 10.2109ZM32.6445 3.72266C32.6445 3.84514 32.6371 3.44535 32.6843 2.97361C32.7393 2.42413 32.8764 1.60503 33.2492 0.673109L49.9618 7.35814C50.3736 6.32857 50.5303 5.41181 50.595 4.76467C50.6265 4.44998 50.6369 4.18944 50.6411 4.02083C50.645 3.86523 50.6445 3.72834 50.6445 3.72266H32.6445ZM32.9142 1.67848C32.2919 3.99292 31.7572 6.00531 31.3573 7.64732L48.8459 11.9074C49.1881 10.5025 49.6691 8.68677 50.2967 6.35277L32.9142 1.67848ZM31.3636 7.62123C31.1029 8.678 30.8608 9.2522 30.7553 9.45919L46.7916 17.6346C47.7017 15.8494 48.3581 13.8845 48.8395 11.9335L31.3636 7.62123ZM43.6115 5.95783C42.2123 5.06586 41.0438 4.25706 40.1057 3.57027L29.4724 18.0938C30.7219 19.0086 32.2096 20.0357 33.9354 21.1359L43.6115 5.95783ZM40.1386 3.59445C37.8215 1.88182 34.976 0.835938 31.918 0.835938V18.8359C30.8131 18.8359 29.9598 18.4541 29.4395 18.0696L40.1386 3.59445ZM31.918 0.835938C28.38 0.835938 24.7902 2.27613 22.1968 5.25845L35.7797 17.0697C34.7489 18.2551 33.2684 18.8359 31.918 18.8359V0.835938ZM22.375 5.05954C20.6749 6.9014 19.6562 9.32944 19.6562 11.9648H37.6562C37.6562 14.0534 36.8329 15.9345 35.6015 17.2686L22.375 5.05954ZM19.6562 11.9648C19.6562 16.9476 23.1275 19.8575 24.315 20.7778L35.3413 6.55033C35.3913 6.58911 35.8539 6.94446 36.3581 7.67556C36.8861 8.44107 37.6562 9.92052 37.6562 11.9648H19.6562ZM24.2943 20.7617C24.7335 21.1042 25.2643 21.4888 25.6857 21.7935C26.1609 22.137 26.6057 22.4568 27.0529 22.7872C27.4998 23.1174 27.8621 23.3947 28.1348 23.617C28.4669 23.8877 28.4342 23.89 28.2428 23.6805L41.5306 11.5382C40.3202 10.2137 38.6088 8.94519 37.7499 8.3105C36.3945 7.30901 35.8549 6.95075 35.3619 6.56637L24.2943 20.7617ZM28.0199 23.4271C27.9724 23.3711 27.8615 23.2167 27.7723 22.9733C27.6831 22.73 27.6641 22.5303 27.6641 22.4336H45.6641C45.6641 18.506 44.3222 14.8234 41.7536 11.7916L28.0199 23.4271ZM27.6641 22.4336C27.6641 22.4204 27.6645 22.4 27.6659 22.3774C27.6672 22.3555 27.6685 22.347 27.6671 22.3586L45.5438 24.4617C45.6211 23.8047 45.6641 23.1404 45.6641 22.4336H27.6641ZM27.6396 22.6267C27.6575 22.4218 27.7495 21.926 28.1038 21.3491C28.4625 20.765 28.8939 20.4177 29.1557 20.2593L38.4693 35.6625C42.6792 33.117 45.1529 28.9818 45.5713 24.1936L27.6396 22.6267ZM29.144 20.2665C28.7382 20.5127 28.3502 20.6016 28.0508 20.6016V38.6016C31.8138 38.6016 35.4102 37.5186 38.481 35.6554L29.144 20.2665ZM28.0508 20.6016C27.8096 20.6016 27.6169 20.5493 27.4531 20.4632L19.0781 36.3962C21.9612 37.9116 25.0498 38.6016 28.0508 38.6016V20.6016ZM27.3685 20.4193C26.9214 20.1903 26.7944 20.0816 26.8592 20.1327C26.9 20.1649 27.027 20.2687 27.1999 20.4547C27.3727 20.6404 27.6213 20.9403 27.8743 21.3654L12.407 30.5721C14.2267 33.6292 17.1489 35.4086 19.1627 36.4401L27.3685 20.4193ZM27.9027 30.524L30.3441 26.3638L14.8199 17.2534L12.3785 21.4135L27.9027 30.524ZM16.6657 28.5907C17.995 29.7503 19.4956 30.8421 21.1573 31.7395L29.7099 15.9012C29.4185 15.7438 29.005 15.4685 28.4984 15.0265L16.6657 28.5907ZM21.1539 31.7377C23.032 32.7528 25.4479 33.4844 27.9727 33.4844V15.4844C28.4587 15.4844 28.7948 15.5555 28.9829 15.6059C29.1768 15.6579 29.4164 15.7425 29.7132 15.903L21.1539 31.7377ZM27.9727 33.4844C29.5598 33.4844 32.122 33.1942 34.5581 31.5243C37.4714 29.5271 39.1016 26.293 39.1016 22.8242H21.1016C21.1016 21.8665 21.3062 20.6692 21.9396 19.4464C22.5761 18.2177 23.4711 17.3012 24.3804 16.6779C26.0401 15.5401 27.5379 15.4844 27.9727 15.4844V33.4844ZM39.1016 22.8242C39.1016 22.3145 39.0638 21.8983 39.0343 21.6326C39.0207 21.51 39.0071 21.4058 39.0012 21.3608C38.9996 21.3482 38.998 21.336 38.9969 21.3277C38.9957 21.3183 38.9949 21.3124 38.9942 21.3069C38.9928 21.2963 38.9926 21.2949 38.993 21.2978L21.132 23.5304C21.1409 23.6013 21.152 23.6856 21.1524 23.6889C21.1557 23.7141 21.1507 23.677 21.1444 23.6203C21.1295 23.4865 21.1016 23.1972 21.1016 22.8242H39.1016ZM38.3282 18.8534C37.4746 16.8719 36.1616 15.5345 35.5207 14.9205C34.7528 14.1848 33.9561 13.5711 33.3634 13.1355C32.7581 12.6907 32.1328 12.2641 31.7137 11.976C31.2105 11.6302 30.9952 11.477 30.8866 11.3929L19.8634 25.6228C20.4482 26.0758 21.0971 26.5207 21.5174 26.8096C22.0217 27.1563 22.3791 27.4011 22.704 27.6399C23.0414 27.8879 23.1224 27.97 23.0681 27.9179C23.0317 27.8831 22.879 27.7349 22.6772 27.4774C22.488 27.236 22.1223 26.7304 21.7968 25.9747L38.3282 18.8534ZM30.8588 11.3714C30.5327 11.1209 30.3105 10.933 30.1484 10.7791C29.9879 10.6267 29.9406 10.5581 29.952 10.574C29.969 10.5978 30.0587 10.73 30.1415 10.9647C30.2295 11.2144 30.2734 11.4788 30.2734 11.7109H12.2734C12.2734 19.5941 17.8179 24.051 19.8912 25.6442L30.8588 11.3714ZM30.2734 11.7109C30.2734 11.7745 30.2694 11.8251 30.265 11.8605C30.2606 11.8957 30.2565 11.9099 30.2586 11.9016L12.7961 7.53593C12.4473 8.93089 12.2734 10.3277 12.2734 11.7109H30.2734ZM30.3161 11.6574C30.2841 11.8023 30.2708 11.7725 30.3821 11.5403C30.4934 11.3082 30.6943 10.9464 31.0378 10.4376L16.1185 0.367088C14.7463 2.3999 13.3735 4.90185 12.7386 7.78006L30.3161 11.6574ZM30.9644 10.5447C30.9536 10.5601 30.958 10.5442 31.0243 10.4935C31.0976 10.4375 31.286 10.31 31.6607 10.1595L24.9487 -6.5423C21.4715 -5.14492 18.4064 -2.92084 16.1919 0.260024L30.9644 10.5447Z" fill="black" mask="url(#path-1-outside-1_58_9134)"/>
</svg>
