<svg width="34" height="34" viewBox="0 0 34 34" fill="none" xmlns="http://www.w3.org/2000/svg">
<g id="fluent:arrow-up-12-filled">
<path id="Vector" d="M17.0006 29.7496C17.5642 29.7496 18.1047 29.5257 18.5032 29.1272C18.9017 28.7286 19.1256 28.1881 19.1256 27.6246V10.7946L24.7073 16.3762C25.1101 16.7516 25.6429 16.9559 26.1934 16.9462C26.7439 16.9365 27.2692 16.7135 27.6585 16.3241C28.0479 15.9348 28.2709 15.4096 28.2806 14.859C28.2903 14.3085 28.086 13.7757 27.7106 13.3729L18.5023 4.16455C18.1038 3.76661 17.5637 3.54309 17.0006 3.54309C16.4375 3.54309 15.8974 3.76661 15.4989 4.16455L6.2906 13.3729C6.08182 13.5674 5.91436 13.802 5.79822 14.0627C5.68207 14.3234 5.61962 14.6047 5.61459 14.8901C5.60955 15.1754 5.66204 15.4588 5.76892 15.7234C5.87579 15.988 6.03487 16.2284 6.23666 16.4302C6.43844 16.6319 6.67881 16.791 6.94341 16.8979C7.208 17.0048 7.49142 17.0573 7.77675 17.0522C8.06207 17.0472 8.34346 16.9847 8.60412 16.8686C8.86479 16.7525 9.09939 16.585 9.29393 16.3762L14.8756 10.7946V27.6246C14.8756 28.7976 15.8276 29.7496 17.0006 29.7496Z" fill="#49FF59"/>
</g>
</svg>
