<svg width="14" height="15" viewBox="0 0 14 15" fill="none" xmlns="http://www.w3.org/2000/svg">
<path fill-rule="evenodd" clip-rule="evenodd" d="M13.0515 14.0599C12.7703 14.3408 12.389 14.4985 11.9915 14.4985C11.594 14.4985 11.2128 14.3408 10.9315 14.0599L6.99154 10.1219L3.05154 14.0619C2.76851 14.335 2.38953 14.486 1.99624 14.4824C1.60294 14.4788 1.2268 14.3208 0.948816 14.0426C0.670835 13.7644 0.513258 13.3881 0.510027 12.9948C0.506796 12.6015 0.65817 12.2226 0.931544 11.9399L5.93154 6.93985C6.21279 6.65895 6.59404 6.50117 6.99154 6.50117C7.38904 6.50117 7.77029 6.65895 8.05154 6.93985L13.0515 11.9399C13.1909 12.0792 13.3015 12.2446 13.3769 12.4266C13.4524 12.6087 13.4912 12.8038 13.4912 13.0009C13.4912 13.1979 13.4524 13.3931 13.3769 13.5751C13.3015 13.7572 13.1909 13.9226 13.0515 14.0619L13.0515 14.0599ZM13.0515 8.05986C12.7703 8.34076 12.389 8.49854 11.9915 8.49854C11.594 8.49853 11.2128 8.34076 10.9315 8.05986L6.99154 4.12185L3.05154 8.06185C2.76851 8.33496 2.38953 8.48598 1.99624 8.48237C1.60294 8.47877 1.2268 8.32084 0.948817 8.0426C0.670835 7.76435 0.513259 7.38806 0.510028 6.99476C0.506797 6.60146 0.65817 6.22263 0.931544 5.93985L5.93154 0.939855C6.21279 0.658954 6.59404 0.501174 6.99154 0.501174C7.38904 0.501174 7.77029 0.658954 8.05154 0.939855L13.0515 5.93985C13.1909 6.07915 13.3015 6.24456 13.3769 6.42661C13.4524 6.60866 13.4912 6.80379 13.4912 7.00086C13.4912 7.19792 13.4524 7.39305 13.3769 7.5751C13.3015 7.75715 13.1909 7.92255 13.0515 8.06186L13.0515 8.05986Z" fill="white"/>
</svg>
