<svg width="24" height="24" viewBox="0 0 24 24" fill="none" xmlns="http://www.w3.org/2000/svg">
<g id="Frame 1321315384">
<path id="Vector" d="M0.0722237 9.0263C0.18359 8.55304 0.473345 8.24973 0.946135 8.19727C1.34056 8.15355 1.68961 8.31477 2.02216 8.51916C2.32583 8.7066 2.42225 8.99789 2.2784 9.27714C2.13662 9.55148 1.8448 9.61433 1.53648 9.4471C1.38696 9.36622 1.22764 9.30338 1.07297 9.23233C0.952322 9.54711 1.03275 10.1805 1.21011 10.3679C1.24517 10.4046 1.33901 10.4128 1.39057 10.392C1.80303 10.2275 2.2155 10.1095 2.64652 10.3281C2.67127 10.2603 2.68932 10.2231 2.69963 10.1838C2.91463 9.36568 3.28121 8.62955 3.77307 7.96337C4.91148 6.42171 6.42368 5.45824 8.13593 4.80791C8.38186 4.71391 8.58242 4.79971 8.74174 5.01503C9.04026 5.41616 9.34239 5.81456 9.64194 6.21459C9.88942 6.54522 9.89613 6.71354 9.67752 7.07532C9.42798 7.48901 9.17689 7.90216 8.91704 8.33116C9.58987 8.7383 10.2462 9.12139 10.886 9.53345C11.05 9.63838 11.2016 9.81271 11.2903 9.99305C11.5625 10.5494 11.8012 11.1248 12.0544 11.6921C12.0858 11.7626 12.1245 11.8293 12.1704 11.9178C12.654 11.3385 13.1185 10.7827 13.5831 10.2259C13.1 9.47825 12.6297 8.75415 12.1631 8.02731C11.9198 7.6475 12.0306 7.28408 12.4349 7.12997C12.8731 6.96274 13.3103 6.79278 13.7537 6.64249C13.9084 6.59003 13.9625 6.5015 13.9801 6.34302C14.0352 5.83587 14.094 5.32872 14.1631 4.82321C14.2306 4.32973 14.4461 4.14993 14.8962 4.26743C15.6459 4.46307 16.3945 4.67074 17.1282 4.92322C17.4143 5.02104 17.6123 5.02432 17.8804 4.85272C19.0756 4.08599 20.3908 3.90292 21.7612 4.04337C22.2928 4.09747 22.4665 4.37072 22.301 4.90956C21.9762 5.96757 21.6468 7.02395 21.3307 8.08469C21.3013 8.18361 21.3261 8.3257 21.3735 8.42133C21.5926 8.86454 21.8226 9.30283 22.0634 9.73347C22.1293 9.85151 22.2299 9.97556 22.3428 10.0297C22.7599 10.2286 23.1873 10.404 23.6142 10.5789C23.8746 10.686 24.0045 10.8745 23.9999 11.1718C23.9947 11.5068 24.003 11.8424 23.9911 12.1768C23.9617 13.0255 23.8767 13.8622 23.5462 14.653C23.4379 14.9131 23.2884 15.0968 23.0404 15.2148C22.7759 15.3405 22.4712 15.4471 22.2799 15.6597C21.3787 16.6597 20.298 17.3658 19.123 17.9276C18.9632 18.0041 18.9028 18.1063 18.876 18.2785C18.7827 18.8812 18.6842 19.4835 18.5739 20.083C18.4677 20.6595 18.0867 20.9891 17.5427 20.994C17.2664 20.9967 16.989 20.9814 16.7132 20.9973C16.1331 21.0306 15.7537 20.759 15.5299 20.1972C15.3742 19.8054 15.1891 19.4266 15.0226 19.0534C14.988 19.0463 14.971 19.0375 14.9576 19.0408C12.9979 19.542 11.0448 19.5195 9.10058 18.9479C8.96705 18.9086 8.91961 18.9709 8.86548 19.078C8.63965 19.5288 8.4097 19.9775 8.17718 20.4251C7.98074 20.8033 7.67191 20.9891 7.26666 20.994C6.98979 20.9967 6.71344 20.9995 6.43657 20.9929C5.92253 20.9814 5.51987 20.5978 5.45336 20.0562C5.33838 19.1179 5.22341 18.1795 5.11926 17.2401C5.09142 16.9865 5.00119 16.8046 4.81403 16.6302C3.39979 15.3126 2.5068 13.7174 2.50629 11.6582C2.50629 11.4036 2.27479 11.2183 2.03401 11.2806C1.89687 11.3156 1.76591 11.379 1.63083 11.4243C1.12453 11.5943 0.723404 11.473 0.423334 11.0123C0.0314922 10.4111 -0.0953407 9.73893 0.0722237 9.0263ZM18.2645 11.3637C18.4017 11.5358 18.5033 11.6861 18.626 11.8129C18.8595 12.0539 19.1591 12.0561 19.3617 11.8336C19.5566 11.62 19.5514 11.3085 19.3344 11.0702C19.2148 10.939 19.0745 10.8286 18.908 10.6762C19.0812 10.5122 19.2184 10.398 19.3375 10.2658C19.5509 10.0291 19.555 9.71161 19.3602 9.5023C19.1519 9.27878 18.8595 9.28316 18.6239 9.52689C18.5064 9.64876 18.4058 9.78921 18.2625 9.96354C18.1104 9.78866 18.0011 9.64821 17.8773 9.52416C17.6376 9.28316 17.3427 9.27933 17.1401 9.50339C16.9452 9.71871 16.9524 10.0253 17.1684 10.2679C17.286 10.4007 17.4174 10.5188 17.585 10.6855C17.4241 10.833 17.2839 10.9434 17.1643 11.0751C16.9493 11.3123 16.9467 11.6293 17.1442 11.8391C17.3422 12.0501 17.6407 12.0512 17.8645 11.8271C17.9903 11.7014 18.0996 11.5566 18.2645 11.3637Z" fill="white"/>
</g>
</svg>
