<svg width="24" height="24" viewBox="0 0 24 24" fill="none" xmlns="http://www.w3.org/2000/svg">
<g clip-path="url(#clip0_2001_2633)">
<rect width="24" height="24" rx="12" fill="white"/>
<circle cx="12" cy="12" r="24" fill="black"/>
<path d="M14.5093 9.36636C14.4596 9.73881 14.4063 10.1199 14.349 10.5125C14.2365 11.2807 14.1143 12.0433 13.9849 12.7862C13.6381 12.5018 13.3151 12.1895 13.02 11.853C12.6736 11.4603 12.3653 11.0332 12.0996 10.5793C11.3436 11.8707 10.2443 12.9375 8.92636 13.6535C8.87059 13.6839 8.81532 13.7132 8.75954 13.7421C7.88788 14.1904 6.92494 14.4869 5.90572 14.5968C5.76272 13.8544 5.62936 13.108 5.50564 12.3575C5.28455 11.0302 5.09389 9.69174 4.93416 8.34316C4.86064 7.7263 4.7937 7.10742 4.73438 6.48752C5.72368 6.0493 6.76065 5.69558 7.83514 5.4375C7.88788 6.07106 7.94923 6.70512 8.01718 7.33615C8.04253 7.57095 8.0689 7.80676 8.09527 8.04106C8.1977 8.93826 8.31635 9.8304 8.44515 10.718C9.59469 9.72059 10.4638 8.40844 10.9156 6.91614C10.9445 6.9131 10.9724 6.91209 11.0003 6.91057C11.3644 6.88831 11.7315 6.87717 12.0996 6.87717C12.4678 6.87717 12.8349 6.88831 13.199 6.91057C13.2269 6.91209 13.2548 6.9131 13.2837 6.91614C13.5189 7.6929 13.8678 8.42109 14.3085 9.08147C14.3734 9.17812 14.4403 9.27275 14.5093 9.36636Z" fill="white"/>
<path d="M19.4651 6.48752C19.4058 7.10742 19.3388 7.7263 19.2653 8.34316C19.1056 9.69174 18.9149 11.0302 18.6938 12.3575C18.5701 13.108 18.4368 13.8544 18.2938 14.5968C18.2354 14.9044 18.1741 15.2096 18.1117 15.5162C17.5418 16.085 16.9454 16.629 16.3268 17.1462C15.6428 17.7175 14.9298 18.2559 14.1905 18.7579C13.8817 18.9689 13.5678 19.1728 13.2494 19.3697C12.8726 19.603 12.4893 19.8287 12.0998 20.0437C11.3828 19.646 10.6851 19.2174 10.0092 18.7579C9.26985 18.2559 8.5569 17.7175 7.87286 17.1462C7.42257 16.7702 6.98446 16.3805 6.56055 15.9767C7.4961 15.8269 8.38602 15.5425 9.21001 15.1458C9.352 15.0765 9.49246 15.0046 9.62987 14.9297C10.3139 15.6812 11.1546 16.2874 12.0998 16.6968C12.8701 16.3638 13.5688 15.9003 14.1707 15.3346C14.5475 14.9783 14.8867 14.5816 15.1798 14.153C15.2123 13.9865 15.2427 13.821 15.2731 13.6535C15.4496 12.6809 15.6093 11.7017 15.7543 10.718C15.8831 9.8304 16.0018 8.93826 16.1042 8.04105C16.1306 7.80676 16.1569 7.57095 16.1823 7.33615C16.2502 6.70512 16.3116 6.07106 16.3643 5.4375C17.4388 5.69558 18.4758 6.0493 19.4651 6.48752Z" fill="#950FFF"/>
<path d="M19.4651 6.48752C19.4058 7.10742 19.3388 7.7263 19.2653 8.34316C19.1056 9.69174 18.9149 11.0302 18.6938 12.3575C18.5701 13.108 18.4368 13.8544 18.2938 14.5968C18.2354 14.9044 18.1741 15.2096 18.1117 15.5162C17.5418 16.085 16.9454 16.629 16.3268 17.1462C15.6428 17.7175 14.9298 18.2559 14.1905 18.7579C13.8817 18.9689 13.5678 19.1728 13.2494 19.3697C12.8726 19.603 12.4893 19.8287 12.0998 20.0437C11.3828 19.646 10.6851 19.2174 10.0092 18.7579C9.26985 18.2559 8.5569 17.7175 7.87286 17.1462C7.42257 16.7702 6.98446 16.3805 6.56055 15.9767C7.4961 15.8269 8.38602 15.5425 9.21001 15.1458C9.352 15.0765 9.49246 15.0046 9.62987 14.9297C10.3139 15.6812 11.1546 16.2874 12.0998 16.6968C12.8701 16.3638 13.5688 15.9003 14.1707 15.3346C14.5475 14.9783 14.8867 14.5816 15.1798 14.153C15.2123 13.9865 15.2427 13.821 15.2731 13.6535C15.4496 12.6809 15.6093 11.7017 15.7543 10.718C15.8831 9.8304 16.0018 8.93826 16.1042 8.04105C16.1306 7.80676 16.1569 7.57095 16.1823 7.33615C16.2502 6.70512 16.3116 6.07106 16.3643 5.4375C17.4388 5.69558 18.4758 6.0493 19.4651 6.48752Z" fill="#950FFF"/>
</g>
<defs>
<clipPath id="clip0_2001_2633">
<rect width="24" height="24" rx="12" fill="white"/>
</clipPath>
</defs>
</svg>
